<?xml version="1.0" encoding="utf-8"?>
<!-- Generator: Adobe Illustrator 19.1.0, SVG Export Plug-In . SVG Version: 6.00 Build 0)  -->
<svg version="1.1" id="Capa_1" xmlns="http://www.w3.org/2000/svg" xmlns:xlink="http://www.w3.org/1999/xlink" x="0px" y="0px"
	 viewBox="0 0 48.6 48.8" style="enable-background:new 0 0 48.6 48.8;" xml:space="preserve">
<style type="text/css">
	.st0{fill:#FFFFFF;}
</style>
<g>
	<g>
		<g>
			<path class="st0" d="M26.4,38.4h-5.6V24.9H18v-4.7h2.8v-2.8c0-3.8,1.6-6.1,6.1-6.1h3.7V16h-2.3c-1.8,0-1.9,0.7-1.9,1.9l0,2.3h4.2
				l-0.5,4.7h-3.7V38.4z"/>
		</g>
	</g>
	<g>
		<path class="st0" d="M24.3,47.5c-12.4,0-22.6-10.1-22.6-22.6c0-12.4,10.1-22.6,22.6-22.6c12.4,0,22.6,10.1,22.6,22.6
			C46.9,37.3,36.7,47.5,24.3,47.5z M24.3,4C12.8,4,3.4,13.4,3.4,24.9c0,11.5,9.4,20.9,20.9,20.9c11.5,0,20.9-9.4,20.9-20.9
			C45.2,13.4,35.8,4,24.3,4z"/>
	</g>
</g>
</svg>
