<?xml version="1.0" encoding="utf-8"?>
<!-- Generator: Adobe Illustrator 19.2.1, SVG Export Plug-In . SVG Version: 6.00 Build 0)  -->
<svg version="1.1" id="Capa_1" xmlns="http://www.w3.org/2000/svg" xmlns:xlink="http://www.w3.org/1999/xlink" x="0px" y="0px"
	 viewBox="0 0 74.9 74.9" style="enable-background:new 0 0 74.9 74.9;" xml:space="preserve">
<style type="text/css">
	.st0{fill:#79BEC0;}
</style>
<g>
	<g>
		<g>
			<path class="st0" d="M40.9,59.9h-9.3V37.4h-4.7v-7.8h4.7V25c0-6.3,2.6-10.1,10.1-10.1h6.2v7.8H44c-2.9,0-3.1,1.1-3.1,3.1l0,3.9h7
				l-0.8,7.8h-6.2V59.9z"/>
		</g>
	</g>
	<g>
		<path class="st0" d="M37.4,74.9C16.8,74.9,0,58.1,0,37.4C0,16.8,16.8,0,37.4,0c20.6,0,37.4,16.8,37.4,37.4
			C74.9,58.1,58.1,74.9,37.4,74.9z M37.4,2.8C18.3,2.8,2.8,18.3,2.8,37.4c0,19.1,15.6,34.7,34.7,34.7c19.1,0,34.7-15.6,34.7-34.7
			C72.1,18.3,56.6,2.8,37.4,2.8z"/>
	</g>
</g>
</svg>
