<?xml version="1.0" encoding="utf-8"?>
<!-- Generator: Adobe Illustrator 19.1.0, SVG Export Plug-In . SVG Version: 6.00 Build 0)  -->
<svg version="1.1" id="Capa_1" xmlns="http://www.w3.org/2000/svg" xmlns:xlink="http://www.w3.org/1999/xlink" x="0px" y="0px"
	 viewBox="0 0 48.6 48.8" style="enable-background:new 0 0 48.6 48.8;" xml:space="preserve">
<style type="text/css">
	.st0{fill:#FFFFFF;}
</style>
<g>
	<g>
		<path class="st0" d="M33.9,12.3H15.5c-1.6,0-2.9,1.3-2.9,2.9v18.5c0,1.6,1.3,2.9,2.9,2.9h18.5c1.6,0,2.9-1.3,2.9-2.9V15.1
			C36.8,13.5,35.5,12.3,33.9,12.3z M29.4,15.7c0-0.4,0.3-0.7,0.7-0.7h3.3c0.4,0,0.7,0.3,0.7,0.7V19c0,0.4-0.3,0.7-0.7,0.7h-3.3
			c-0.4,0-0.7-0.3-0.7-0.7V15.7z M24.7,19.7c2.6,0,4.7,2.1,4.7,4.6c0,2.6-2.1,4.6-4.7,4.6c-2.6,0-4.7-2.1-4.7-4.6
			C20.1,21.8,22.2,19.7,24.7,19.7z M34.1,33c0,0.4-0.3,0.7-0.7,0.7H16.1c-0.4,0-0.7-0.3-0.7-0.7V22.4h2.3c-0.2,0.6-0.3,1.3-0.3,1.9
			c0,4.1,3.3,7.3,7.4,7.3c4.1,0,7.4-3.3,7.4-7.3c0-0.7-0.1-1.3-0.3-1.9h2.3V33z"/>
	</g>
	<g>
		<path class="st0" d="M24.3,47.8c-12.9,0-23.4-10.5-23.4-23.4c0-12.9,10.5-23.4,23.4-23.4c12.9,0,23.4,10.5,23.4,23.4
			C47.8,37.3,37.2,47.8,24.3,47.8z M24.3,2.7c-12,0-21.7,9.7-21.7,21.7c0,12,9.7,21.7,21.7,21.7c12,0,21.7-9.7,21.7-21.7
			C46,12.4,36.3,2.7,24.3,2.7z"/>
	</g>
</g>
</svg>
