<?xml version="1.0" encoding="utf-8"?>
<!-- Generator: Adobe Illustrator 19.2.1, SVG Export Plug-In . SVG Version: 6.00 Build 0)  -->
<svg version="1.1" id="Capa_1" xmlns="http://www.w3.org/2000/svg" xmlns:xlink="http://www.w3.org/1999/xlink" x="0px" y="0px"
	 viewBox="0 0 300.8 105.5" style="enable-background:new 0 0 300.8 105.5;" xml:space="preserve">
<style type="text/css">
	.st0{fill:#FFFFFF;}
</style>
<g>
	<g>
		<g>
			<path class="st0" d="M39.8,8.8H25.1V56H14.8V8.8H0V0h39.8V8.8z"/>
			<path class="st0" d="M44.2,0h9.9v20.4c2.7-2.1,5.9-3.2,9.6-3.2c4.3,0,7.8,1.4,10.5,4.1c2.7,2.7,4.1,6.6,4.1,11.8V56h-9.9V34.2
				c0-3-0.7-5.3-2-6.7c-1.3-1.4-3.1-2.1-5.1-2.1c-2.7,0-5.1,1.2-7.2,3.5V56h-9.9V0z"/>
			<path class="st0" d="M116.5,52.7c-4.1,2.7-8.9,4-14.4,4c-6.1,0-10.9-1.7-14.4-5.2c-3.5-3.5-5.3-8.2-5.3-14.2
				c0-6.1,1.6-11,4.9-14.6c3.3-3.7,7.6-5.5,12.9-5.5c4.9,0,8.7,1.6,11.6,4.8c2.8,3.2,4.3,7.6,4.3,13.3c0,1.4-0.1,2.7-0.2,3.9H92.3
				v0.1c0.4,3,1.5,5.3,3.4,6.9c1.9,1.6,4.4,2.4,7.7,2.4c4.2,0,7.9-1.2,11.2-3.6L116.5,52.7z M106.5,32.4c-0.1-2.2-0.7-4-1.8-5.4
				c-1.2-1.4-2.7-2.1-4.6-2.1c-4,0-6.5,2.5-7.5,7.5H106.5z"/>
			<path class="st0" d="M120.6,18h7.8l0.8,4.7c2.6-3.7,5.5-5.5,8.8-5.5c1.4,0,2.6,0.3,3.7,0.8l-0.8,8.8c-1.1-0.6-2.2-0.8-3.4-0.8
				c-2.4,0-4.8,1.5-7,4.6V56h-9.9V18z"/>
			<path class="st0" d="M144.7,22.2c4.6-3.2,10-4.9,16-4.9c10.7,0,16.1,5.1,16.1,15.2v12.8c0,2.1,0.9,3.1,2.7,3.1
				c1,0,1.9-0.4,2.7-1.1l1,7.5c-2,1.1-4.1,1.7-6.5,1.7c-3.8,0-6.5-1.4-8-4.1c-3,2.8-6.9,4.3-11.4,4.3c-3.9,0-6.9-1-9.3-3
				c-2.3-2-3.5-4.6-3.5-7.8c0-3.7,1.5-6.5,4.5-8.5c3-2,7.2-3,12.5-3c1.9,0,3.7,0.2,5.3,0.5v-1.7c0-2.7-0.7-4.6-2-5.8
				c-1.3-1.2-3.3-1.8-5.9-1.8c-4.2,0-8.2,1.4-12.2,4.3L144.7,22.2z M166.9,41.7c-1.4-0.4-3-0.5-4.8-0.5c-5.1,0-7.7,1.4-7.7,4.3
				c0,1.2,0.5,2.1,1.4,2.8c0.9,0.7,2.2,1,3.7,1c3,0,5.5-1.1,7.4-3.3V41.7z"/>
			<path class="st0" d="M186.1,18h7.8l0.5,3.9c3.2-3.1,7.1-4.6,11.7-4.6c4.7,0,8.6,1.7,11.5,5.1c3,3.4,4.5,7.9,4.5,13.4
				c0,6.5-2.1,11.6-6.3,15.3c-4.2,3.8-10.1,5.7-17.8,5.7h-2l-0.1,9.4l-9.8,0V18z M196,48.4h2.9c4.3,0,7.6-1.1,9.8-3.3
				c2.2-2.2,3.3-5.2,3.3-9c0-3.2-0.8-5.9-2.3-7.8c-1.5-2-3.6-2.9-6.2-2.9c-2.9,0-5.4,1.2-7.5,3.6V48.4z"/>
			<path class="st0" d="M225.9,18h7.8l0.5,3.9c3.2-3.1,7.1-4.6,11.7-4.6c4.7,0,8.6,1.7,11.5,5.1c3,3.4,4.5,7.9,4.5,13.4
				c0,6.5-2.1,11.6-6.3,15.3c-4.2,3.8-10.1,5.7-17.8,5.7h-2l0,9.4l-9.9,0V18z M235.8,48.4h2.9c4.3,0,7.6-1.1,9.8-3.3
				c2.2-2.2,3.3-5.2,3.3-9c0-3.2-0.8-5.9-2.3-7.8c-1.5-2-3.6-2.9-6.2-2.9c-2.9,0-5.4,1.2-7.5,3.6V48.4z"/>
		</g>
		<path class="st0" d="M290.9,18c-2.1,10.5-4.7,20.1-8,28.9c-4.3-10.5-7.4-20.1-9.3-28.9h-10.1c2.5,10.9,7.1,23.9,13.7,39.2
			C263.4,80.6,238,95.8,213,95.8c-23.6,0-45.2-11-59.1-29.7h-11.7c15.3,24.6,41.8,39.3,70.8,39.3c14.6,0,29.4-4.4,42.8-12.9
			c11-6.9,20.1-16.4,27.3-27.2c7.2-10.8,11.6-23.3,14.9-35.8c0.3-1,2.5-11.6,2.7-11.6H290.9z"/>
	</g>
	<g>
		<path class="st0" d="M13.3,80.2v-8.9h2.6v1.4c0.8-1.1,1.8-1.7,3-1.7c1.5,0,2.4,0.6,2.8,1.8c0.8-1.2,1.9-1.8,3.1-1.8
			c1.3,0,2.1,0.5,2.6,1.4c0.3,0.7,0.4,1.4,0.4,2.3c0,0.1,0,0.2,0,0.3v5.2h-2.6v-4.4c0-1.7-0.2-2.7-1.5-2.7c-1.4,0-1.9,1.1-1.9,3.2
			v3.9h-2.6v-4.4c0-1.7-0.2-2.7-1.4-2.7c-1.4,0-1.9,1.1-1.9,3.2v3.9H13.3z"/>
		<path class="st0" d="M31.8,76.4c0.2,1.3,0.9,1.9,2.2,1.9c0.9,0,1.6-0.4,2.1-1.1l2.1,1c-1,1.6-2.3,2.3-4.2,2.3
			c-2.9,0-4.7-1.9-4.7-4.7c0-2.7,1.9-4.8,4.7-4.8c2.8,0,4.6,1.8,4.6,4.7c0,0.2,0,0.4,0,0.7H31.8z M33.9,73.1c-1.1,0-1.9,0.6-2.1,1.7
			h4C35.8,73.7,35.1,73.1,33.9,73.1z"/>
		<path class="st0" d="M40.1,71.3h2.5v1.4c0.9-1.1,2-1.7,3.3-1.7c1.4,0,2.3,0.5,2.8,1.4c0.4,0.7,0.4,1.4,0.4,2.3c0,0.1,0,0.2,0,0.3
			v5.2h-2.6v-4.4c0-1.7-0.1-2.7-1.7-2.7c-0.7,0-1.3,0.3-1.7,0.9c-0.4,0.6-0.4,1.2-0.4,2c0,0.1,0,0.2,0,0.4v3.9h-2.6V71.3z"/>
		<path class="st0" d="M51.5,73.3h-1.2v-2h1.2v-2.9H54v2.9h1.2v2H54v6.9h-2.6V73.3z"/>
		<path class="st0" d="M58.5,76.4c0.2,1.3,0.9,1.9,2.2,1.9c0.9,0,1.6-0.4,2.1-1.1l2.1,1c-1,1.6-2.3,2.3-4.2,2.3
			c-2.9,0-4.7-1.9-4.7-4.7c0-2.7,1.9-4.8,4.7-4.8c2.8,0,4.6,1.8,4.6,4.7c0,0.2,0,0.4,0,0.7H58.5z M60.6,73.1c-1.1,0-1.9,0.6-2.1,1.7
			h4C62.5,73.7,61.8,73.1,60.6,73.1z"/>
		<path class="st0" d="M67.9,77.6c0.1,0.7,0.7,1.1,1.6,1.1c0.9,0,1.4-0.3,1.4-0.9c0-0.8-0.7-0.9-1.9-1.3c-1.8-0.7-2.8-1.3-2.8-2.7
			c0-1.7,1.4-2.9,3.7-2.9c1.6,0,2.8,0.7,3.3,1.8l-1.9,0.9c-0.2-0.7-0.7-1-1.5-1c-0.8,0-1.3,0.4-1.3,0.9c0,0.7,0.8,0.9,2.1,1.3
			c1.8,0.6,2.7,1.3,2.7,2.7c0,1.7-1.4,2.9-3.8,2.9c-1.9,0-3.2-0.7-3.7-1.9L67.9,77.6z"/>
		<path class="st0" d="M80.5,73.3h-1.2v-2h1.2v-2c0-2.3,0.9-3.3,3.5-3.3c0.3,0,0.7,0.1,1.2,0.2v2.1c-0.3-0.2-0.6-0.2-0.9-0.2
			c-1,0-1.3,0.5-1.3,1.6v1.7h1.7v2h-1.7v6.9h-2.6V73.3z"/>
		<path class="st0" d="M87.9,76.4c0.2,1.3,0.9,1.9,2.2,1.9c0.9,0,1.6-0.4,2.1-1.1l2.1,1c-1,1.6-2.3,2.3-4.2,2.3
			c-2.9,0-4.7-1.9-4.7-4.7c0-2.7,1.9-4.8,4.7-4.8c2.8,0,4.6,1.8,4.6,4.7c0,0.2,0,0.4,0,0.7H87.9z M90.1,73.1c-1.1,0-1.9,0.6-2.1,1.7
			h4C91.9,73.7,91.2,73.1,90.1,73.1z"/>
		<path class="st0" d="M96.3,66.1h2.6v14h-2.6V66.1z"/>
		<path class="st0" d="M102.5,66.1c0.8,0,1.5,0.7,1.5,1.5c0,0.9-0.7,1.5-1.5,1.5c-0.8,0-1.5-0.7-1.5-1.5
			C101,66.8,101.7,66.1,102.5,66.1z M101.2,71.3h2.6v8.9h-2.6V71.3z"/>
		<path class="st0" d="M110.2,80.5c-2.8,0-4.7-1.9-4.7-4.8c0-2.8,2-4.7,4.8-4.7c0.9,0,1.6,0.1,2.3,0.6l0,2.6
			c-0.5-0.6-1.3-0.9-2.1-0.9c-1.4,0-2.4,0.9-2.4,2.4c0,1.5,0.9,2.4,2.5,2.4c0.8,0,1.5-0.3,2-0.9l0,2.7
			C111.8,80.3,111.1,80.5,110.2,80.5z"/>
		<path class="st0" d="M116.1,76.4c0.2,1.3,0.9,1.9,2.2,1.9c0.9,0,1.6-0.4,2.1-1.1l2.1,1c-1,1.6-2.3,2.3-4.2,2.3
			c-2.9,0-4.7-1.9-4.7-4.7c0-2.7,1.9-4.8,4.7-4.8c2.8,0,4.6,1.8,4.6,4.7c0,0.2,0,0.4,0,0.7H116.1z M118.3,73.1
			c-1.1,0-1.9,0.6-2.1,1.7h4C120.1,73.7,119.4,73.1,118.3,73.1z"/>
		<path class="st0" d="M125.5,77.6c0.1,0.7,0.7,1.1,1.6,1.1c0.9,0,1.4-0.3,1.4-0.9c0-0.8-0.7-0.9-1.9-1.3c-1.8-0.7-2.8-1.3-2.8-2.7
			c0-1.7,1.4-2.9,3.7-2.9c1.6,0,2.8,0.7,3.3,1.8l-1.9,0.9c-0.2-0.7-0.7-1-1.5-1c-0.8,0-1.3,0.4-1.3,0.9c0,0.7,0.8,0.9,2.1,1.3
			c1.8,0.6,2.7,1.3,2.7,2.7c0,1.7-1.4,2.9-3.8,2.9c-1.9,0-3.2-0.7-3.7-1.9L125.5,77.6z"/>
	</g>
</g>
</svg>
