<?xml version="1.0" encoding="utf-8"?>
<!-- Generator: Adobe Illustrator 19.0.0, SVG Export Plug-In . SVG Version: 6.00 Build 0)  -->
<svg version="1.1" id="Capa_1" xmlns="http://www.w3.org/2000/svg" xmlns:xlink="http://www.w3.org/1999/xlink" x="0px" y="0px"
	 viewBox="0 0 186.3 67" style="enable-background:new 0 0 186.3 67;" xml:space="preserve">
<style type="text/css">
	.st0{fill:#74B2B4;}
</style>
<g>
	<g>
		<g>
			<path class="st0" d="M25.4,6h-9v28.7h-6.3V6h-9V0.7h24.2V6z"/>
			<path class="st0" d="M28.1,0.7h6v12.4c1.7-1.3,3.6-1.9,5.8-1.9c2.6,0,4.7,0.8,6.4,2.5c1.7,1.7,2.5,4,2.5,7.2v13.9h-6V21.5
				c0-1.9-0.4-3.2-1.2-4.1c-0.8-0.9-1.9-1.3-3.1-1.3c-1.6,0-3.1,0.7-4.4,2.1v16.5h-6V0.7z"/>
			<path class="st0" d="M72.1,32.8c-2.5,1.6-5.4,2.5-8.8,2.5c-3.7,0-6.6-1.1-8.8-3.2c-2.1-2.1-3.2-5-3.2-8.7c0-3.7,1-6.7,3-8.9
				c2-2.2,4.6-3.3,7.9-3.3c3,0,5.3,1,7,2.9c1.7,1.9,2.6,4.6,2.6,8.1c0,0.8,0,1.6-0.1,2.4H57.3v0c0.2,1.8,0.9,3.2,2,4.2
				c1.1,1,2.7,1.5,4.7,1.5c2.5,0,4.8-0.7,6.8-2.2L72.1,32.8z M66,20.4c0-1.4-0.4-2.5-1.1-3.3c-0.7-0.8-1.7-1.3-2.8-1.3
				c-2.4,0-4,1.5-4.5,4.5H66z"/>
			<path class="st0" d="M74.5,11.7h4.7l0.5,2.9c1.6-2.2,3.4-3.3,5.4-3.3c0.8,0,1.6,0.2,2.3,0.5L86.9,17c-0.7-0.3-1.4-0.5-2-0.5
				c-1.5,0-2.9,0.9-4.3,2.8v15.4h-6V11.7z"/>
			<path class="st0" d="M89.2,14.2c2.8-2,6.1-3,9.7-3c6.5,0,9.8,3.1,9.8,9.3v7.8c0,1.3,0.5,1.9,1.6,1.9c0.6,0,1.1-0.2,1.7-0.6
				l0.6,4.6c-1.2,0.7-2.5,1-3.9,1c-2.3,0-3.9-0.8-4.9-2.5c-1.9,1.7-4.2,2.6-7,2.6c-2.3,0-4.2-0.6-5.6-1.9c-1.4-1.2-2.1-2.8-2.1-4.8
				c0-2.2,0.9-4,2.7-5.2c1.8-1.2,4.4-1.9,7.6-1.9c1.2,0,2.3,0.1,3.2,0.3v-1c0-1.6-0.4-2.8-1.2-3.5c-0.8-0.7-2-1.1-3.6-1.1
				c-2.5,0-5,0.9-7.4,2.6L89.2,14.2z M102.7,26.1c-0.9-0.2-1.8-0.3-2.9-0.3c-3.1,0-4.7,0.9-4.7,2.6c0,0.7,0.3,1.3,0.8,1.7
				c0.6,0.4,1.3,0.6,2.3,0.6c1.8,0,3.3-0.7,4.5-2V26.1z"/>
			<path class="st0" d="M114.4,11.7h4.7l0.3,2.4c2-1.9,4.3-2.8,7.1-2.8c2.9,0,5.2,1,7,3.1c1.8,2.1,2.7,4.8,2.7,8.2
				c0,3.9-1.3,7-3.8,9.3c-2.5,2.3-6.2,3.5-10.8,3.5h-1.2l-0.1,5.7l-6,0V11.7z M120.4,30.2h1.8c2.6,0,4.6-0.7,6-2
				c1.3-1.3,2-3.2,2-5.5c0-2-0.5-3.6-1.4-4.7c-0.9-1.2-2.2-1.8-3.8-1.8c-1.8,0-3.3,0.7-4.6,2.2V30.2z"/>
			<path class="st0" d="M138.6,11.7h4.7l0.3,2.4c2-1.9,4.3-2.8,7.1-2.8c2.9,0,5.2,1,7,3.1c1.8,2.1,2.7,4.8,2.7,8.2
				c0,3.9-1.3,7-3.8,9.3c-2.5,2.3-6.2,3.5-10.8,3.5h-1.2l0,5.7l-6,0V11.7z M144.7,30.2h1.8c2.6,0,4.6-0.7,6-2c1.3-1.3,2-3.2,2-5.5
				c0-2-0.5-3.6-1.4-4.7c-0.9-1.2-2.2-1.8-3.8-1.8c-1.8,0-3.3,0.7-4.6,2.2V30.2z"/>
		</g>
		<path class="st0" d="M178.2,11.7c-1.3,6.4-2.9,12.2-4.9,17.6c-2.6-6.4-4.5-12.2-5.7-17.6h-6.2c1.5,6.6,4.3,14.6,8.3,23.8
			C161.4,49.8,146,59,130.8,59c-14.3,0-27.5-6.7-36-18.1h-7.1c9.3,15,25.4,23.9,43.1,23.9c8.9,0,17.9-2.7,26-7.8
			c6.7-4.2,12.2-10,16.6-16.5c4.4-6.6,7-14.2,9.1-21.8c0.2-0.6,1.5-7.1,1.7-7.1H178.2z"/>
	</g>
	<g>
		<path class="st0" d="M9.3,49.5v-5.4h1.6v0.8c0.5-0.7,1.1-1,1.8-1c0.9,0,1.5,0.4,1.7,1.1c0.5-0.7,1.2-1.1,1.9-1.1
			c0.8,0,1.3,0.3,1.6,0.8c0.2,0.4,0.2,0.9,0.2,1.4c0,0.1,0,0.1,0,0.2v3.2h-1.6v-2.7c0-1.1-0.1-1.6-0.9-1.6c-0.9,0-1.1,0.7-1.1,1.9
			v2.4h-1.6v-2.7c0-1-0.1-1.6-0.8-1.6c-0.9,0-1.2,0.6-1.2,1.9v2.4H9.3z"/>
		<path class="st0" d="M20.5,47.2c0.1,0.8,0.6,1.2,1.3,1.2c0.6,0,1-0.2,1.3-0.7l1.3,0.6c-0.6,0.9-1.4,1.4-2.6,1.4
			c-1.8,0-2.8-1.2-2.8-2.9c0-1.7,1.2-2.9,2.9-2.9c1.7,0,2.8,1.1,2.8,2.9c0,0.1,0,0.3,0,0.4H20.5z M21.8,45.2c-0.7,0-1.1,0.3-1.3,1
			H23C22.9,45.6,22.5,45.2,21.8,45.2z"/>
		<path class="st0" d="M25.5,44.1h1.5v0.8c0.6-0.7,1.2-1,2-1c0.8,0,1.4,0.3,1.7,0.9c0.2,0.4,0.2,0.8,0.2,1.4c0,0.1,0,0.1,0,0.2v3.2
			h-1.6v-2.7c0-1-0.1-1.6-1-1.6c-0.4,0-0.8,0.2-1,0.5c-0.3,0.3-0.3,0.7-0.3,1.2c0,0.1,0,0.1,0,0.2v2.4h-1.6V44.1z"/>
		<path class="st0" d="M32.5,45.3h-0.8v-1.2h0.8v-1.8H34v1.8h0.8v1.2H34v4.2h-1.6V45.3z"/>
		<path class="st0" d="M36.8,47.2c0.1,0.8,0.6,1.2,1.3,1.2c0.6,0,1-0.2,1.3-0.7l1.3,0.6c-0.6,0.9-1.4,1.4-2.6,1.4
			c-1.8,0-2.8-1.2-2.8-2.9c0-1.7,1.2-2.9,2.9-2.9c1.7,0,2.8,1.1,2.8,2.9c0,0.1,0,0.3,0,0.4H36.8z M38.1,45.2c-0.7,0-1.1,0.3-1.3,1
			h2.5C39.2,45.6,38.8,45.2,38.1,45.2z"/>
		<path class="st0" d="M42.5,47.9c0.1,0.4,0.5,0.7,1,0.7c0.5,0,0.8-0.2,0.8-0.5c0-0.5-0.4-0.5-1.2-0.8c-1.1-0.4-1.7-0.8-1.7-1.6
			c0-1,0.9-1.8,2.3-1.8c1,0,1.7,0.4,2,1.1l-1.2,0.6c-0.1-0.4-0.4-0.6-0.9-0.6c-0.5,0-0.8,0.2-0.8,0.5c0,0.4,0.5,0.6,1.3,0.8
			c1.1,0.4,1.6,0.8,1.6,1.7c0,1-0.9,1.7-2.3,1.7c-1.1,0-2-0.5-2.2-1.2L42.5,47.9z"/>
		<path class="st0" d="M50.1,45.3h-0.7v-1.2h0.7v-1.2c0-1.4,0.6-2,2.2-2c0.2,0,0.4,0,0.7,0.1v1.3c-0.2-0.1-0.4-0.1-0.6-0.1
			c-0.6,0-0.8,0.3-0.8,1v1.1h1v1.2h-1v4.2h-1.6V45.3z"/>
		<path class="st0" d="M54.7,47.2c0.1,0.8,0.6,1.2,1.3,1.2c0.6,0,1-0.2,1.3-0.7l1.3,0.6c-0.6,0.9-1.4,1.4-2.6,1.4
			c-1.8,0-2.8-1.2-2.8-2.9c0-1.7,1.2-2.9,2.9-2.9c1.7,0,2.8,1.1,2.8,2.9c0,0.1,0,0.3,0,0.4H54.7z M56,45.2c-0.7,0-1.1,0.3-1.3,1h2.5
			C57.1,45.6,56.7,45.2,56,45.2z"/>
		<path class="st0" d="M59.8,40.9h1.6v8.5h-1.6V40.9z"/>
		<path class="st0" d="M63.5,40.9c0.5,0,0.9,0.4,0.9,0.9c0,0.5-0.4,0.9-0.9,0.9c-0.5,0-0.9-0.4-0.9-0.9C62.6,41.4,63,40.9,63.5,40.9
			z M62.7,44.1h1.6v5.4h-1.6V44.1z"/>
		<path class="st0" d="M68.2,49.7c-1.7,0-2.9-1.2-2.9-2.9c0-1.7,1.2-2.9,2.9-2.9c0.5,0,1,0.1,1.4,0.3l0,1.6
			c-0.3-0.3-0.8-0.5-1.3-0.5c-0.9,0-1.5,0.6-1.5,1.5c0,0.9,0.6,1.5,1.5,1.5c0.5,0,0.9-0.2,1.2-0.6l0,1.6
			C69.2,49.6,68.8,49.7,68.2,49.7z"/>
		<path class="st0" d="M71.8,47.2c0.1,0.8,0.6,1.2,1.3,1.2c0.6,0,1-0.2,1.3-0.7l1.3,0.6c-0.6,0.9-1.4,1.4-2.6,1.4
			c-1.8,0-2.8-1.2-2.8-2.9c0-1.7,1.2-2.9,2.9-2.9c1.7,0,2.8,1.1,2.8,2.9c0,0.1,0,0.3,0,0.4H71.8z M73.1,45.2c-0.7,0-1.1,0.3-1.3,1
			h2.5C74.2,45.6,73.8,45.2,73.1,45.2z"/>
		<path class="st0" d="M77.5,47.9c0.1,0.4,0.5,0.7,1,0.7c0.5,0,0.8-0.2,0.8-0.5c0-0.5-0.4-0.5-1.2-0.8c-1.1-0.4-1.7-0.8-1.7-1.6
			c0-1,0.9-1.8,2.3-1.8c1,0,1.7,0.4,2,1.1l-1.2,0.6c-0.1-0.4-0.4-0.6-0.9-0.6c-0.5,0-0.8,0.2-0.8,0.5c0,0.4,0.5,0.6,1.3,0.8
			c1.1,0.4,1.6,0.8,1.6,1.7c0,1-0.9,1.7-2.3,1.7c-1.1,0-2-0.5-2.2-1.2L77.5,47.9z"/>
	</g>
</g>
</svg>
