<?xml version="1.0" encoding="utf-8"?>
<!-- Generator: Adobe Illustrator 19.0.0, SVG Export Plug-In . SVG Version: 6.00 Build 0)  -->
<svg version="1.1" id="Capa_1" xmlns="http://www.w3.org/2000/svg" xmlns:xlink="http://www.w3.org/1999/xlink" x="0px" y="0px"
	 viewBox="0 0 229.3 129.8" style="enable-background:new 0 0 229.3 129.8;" xml:space="preserve">
<style type="text/css">
	.st0{fill:#B9CE84;}
</style>
<g>
	<path class="st0" d="M213.7,3.3c-3,14.9-6.8,28.6-11.4,41.2c-6.2-14.9-10.6-28.6-13.2-41.2h-14.4c3.5,15.5,10.1,34.1,19.5,55.8
		c-19.7,33.4-55.9,55.1-91.6,55.1c-33.6,0-64.5-15.7-84.3-42.4H1.7C23.6,107,61.3,128,102.6,128c20.8,0,41.9-6.3,61-18.3
		c15.7-9.9,28.7-23.4,39-38.8c10.3-15.4,16.5-33.3,21.2-51c0.4-1.5,3.5-16.6,3.9-16.6H213.7z"/>
</g>
</svg>
