<?xml version="1.0" encoding="utf-8"?>
<!-- Generator: Adobe Illustrator 19.0.0, SVG Export Plug-In . SVG Version: 6.00 Build 0)  -->
<svg version="1.1" id="Capa_1" xmlns="http://www.w3.org/2000/svg" xmlns:xlink="http://www.w3.org/1999/xlink" x="0px" y="0px"
	 viewBox="-453 326 115.1 118" style="enable-background:new -453 326 115.1 118;" xml:space="preserve">
<style type="text/css">
	.st0{fill:#74B3B5;}
</style>
<g>
	<path class="st0" d="M-341.2,400.6c-0.9-4.5-7.7-21.4-10.7-28.7c-0.5-4.1-1.5-8.2-3-12c-5.2-13.7-16.1-24.4-29.9-29.2
		c-5.3-1.9-10.9-2.8-16.6-2.8c-27.5,0-50,22.4-50,50c0,16,7.7,31,20.5,40.4V442h4v-25.9l-0.9-0.6c-12.2-8.6-19.6-22.7-19.6-37.7
		c0-25.3,20.6-46,46-46c5.2,0,10.4,0.9,15.3,2.6c12.7,4.5,22.8,14.3,27.6,26.9c1.4,3.6,2.3,7.5,2.8,11.3v0.3l0.1,0.3
		c4.7,11.4,9.9,24.8,10.5,28.2c0.6,2.9,0.1,3.7,0,3.9c-0.2,0.3-1,0.4-2,0.4h-8.5l-0.1,1.9c-0.5,9.6-2.3,18.9-3.8,20
		s-10.8,1.4-18.5,1l-2.1-0.1v13.3h4v-9c5.4,0.2,16,0.3,19-1.9c3.5-2.6,4.8-15.1,5.3-21.1h4.7c1.5,0,3.7-0.2,5.1-1.9
		C-340.8,406.3-340.5,404.1-341.2,400.6z"/>
	<path class="st0" d="M-367.9,377.8c0-14.9-9.7-27.4-22.9-31.8c-3.4-1.1-7.2-1.7-10.6-1.7c-18.8,0-33.5,15.4-33.5,33.5
		c0,18.4,15,33.5,33.5,33.5c7.9,0,15.4-2.8,21.1-7.5C-372.7,397.6-367.9,388.2-367.9,377.8z M-401.4,366.9c6,0,10.9,4.9,10.9,10.9
		s-4.9,10.9-10.9,10.9s-10.9-4.9-10.9-10.9S-407.4,366.9-401.4,366.9z M-398.8,365.2c-0.9-0.2-1.8-0.3-2.7-0.3
		c-2.4,0-4.7,0.7-6.6,1.9l-0.9-1.3l15.9-15.9l-5,14.9L-398.8,365.2z M-409.6,364.7l-4.1-5.8l12.6-12.6c2.9,0,5.8,0.5,8.6,1.3
		L-409.6,364.7z M-414.3,358l-2.9-4l-1.2-1.7l2.4-2.4c4.2-2.2,8.7-3.4,13.4-3.5L-414.3,358z M-420.5,352.7l2,2.8l8.8,12.4
		c-2.6,2.2-4.3,5.3-4.6,8.9h-18.6C-432.6,367.3-428.1,358.5-420.5,352.7z M-426.8,378.8l-5.4,5.4c-0.4-1.8-0.6-3.6-0.7-5.4H-426.8z
		 M-425.4,378.8h9.9l-13.8,13.7c-1.2-2.2-2.1-4.6-2.7-7.2L-425.4,378.8z M-414.3,378.9c0.2,2.7,1.3,5.1,2.9,7l-13.2,13.2
		c-1.6-1.7-3-3.6-4.2-5.7L-414.3,378.9z M-410.7,386.7c1.7,1.8,3.9,3,6.3,3.6l-14,14c-2-1.3-3.8-2.8-5.5-4.4L-410.7,386.7z
		 M-403.2,390.5c0.6,0.1,1.2,0.1,1.8,0.1c2.7,0,5.2-0.9,7.3-2.3l1.3,1.6l-17.9,18c-2.4-0.7-4.7-1.8-6.8-3L-403.2,390.5z
		 M-409.6,408.2l17.4-17.4l4.4,5.5l-13,13c-0.2,0-0.5,0-0.7,0C-404.3,409.3-407,408.9-409.6,408.2z M-387.1,397l4.4,5.5l-1.9,1.9
		c-4.4,2.8-9.5,4.5-14.8,4.8L-387.1,397z M-380.8,401.6l-11.8-14.5c2.5-2.3,4-5.7,4-9.3c0-5.3-3.3-9.9-7.9-11.9l5.9-17.7
		c12.4,4.6,20.6,16.3,20.6,29.6C-369.9,387-373.9,395.6-380.8,401.6z"/>
</g>
</svg>
