<?xml version="1.0" encoding="utf-8"?>
<!-- Generator: Adobe Illustrator 19.0.0, SVG Export Plug-In . SVG Version: 6.00 Build 0)  -->
<svg version="1.1" id="Capa_1" xmlns="http://www.w3.org/2000/svg" xmlns:xlink="http://www.w3.org/1999/xlink" x="0px" y="0px"
	 viewBox="0 0 115.1 118" style="enable-background:new 0 0 115.1 118;" xml:space="preserve">
<style type="text/css">
	.st0{fill:#030104;}
</style>
<g>
	<path class="st0" d="M101.5,45.9c-0.5-4.1-1.5-8.2-3-12c-5.3-13.7-16.2-24.4-30-29.2c-5.3-1.9-10.9-2.8-16.6-2.8
		c-27.5,0-50,22.4-50,50c0,16,7.7,31,20.5,40.4v23.7h4V90.1l-0.9-0.6C13.3,80.9,6,66.8,6,51.8c0-25.3,20.6-46,46-46
		c5.2,0,10.4,0.9,15.3,2.6C79.9,12.9,90,22.7,94.8,35.3c1.4,3.6,2.3,7.5,2.8,11.3l0,0.3l0.1,0.3c4.7,11.4,9.9,24.8,10.5,28.2
		c0.6,2.9,0.1,3.7,0,3.9c-0.2,0.3-1,0.4-2,0.4l-8.5,0l-0.1,1.9c-0.5,9.6-2.3,18.9-3.8,20c-1.5,1.1-10.8,1.4-18.5,1l-2.1-0.1v13.3h4
		v-9c5.4,0.2,16,0.3,19-1.9c3.5-2.6,4.8-15.1,5.3-21.1l4.7,0c1.5,0,3.7-0.2,5.1-1.9c1.3-1.5,1.5-3.7,0.8-7.2
		C111.3,70.2,104.5,53.3,101.5,45.9z"/>
	<path class="st0" d="M75.6,75.5c6.3-6.3,9.8-14.7,9.8-23.7c0-8.9-3.5-17.4-9.8-23.7c-6.3-6.3-14.7-9.8-23.7-9.8
		c-8.9,0-17.4,3.5-23.7,9.8c-6.3,6.3-9.8,14.7-9.8,23.7c0,8.9,3.5,17.4,9.8,23.7c6.3,6.3,14.7,9.8,23.7,9.8
		C60.9,85.3,69.3,81.8,75.6,75.5z M20.4,51.8c0-8.4,3.3-16.3,9.2-22.3c5.9-6,13.9-9.2,22.3-9.2c8.4,0,16.3,3.3,22.3,9.2
		c5.9,5.9,9.2,13.9,9.2,22.3c0,8.4-3.3,16.3-9.2,22.3c-5.9,5.9-13.9,9.2-22.3,9.2c-8.4,0-16.3-3.3-22.3-9.2
		C23.7,68.1,20.4,60.2,20.4,51.8z"/>
	<path class="st0" d="M60.1,67.5l-3.7-14.7c2.7-1.6,4.5-4.5,4.5-7.7c0-4.9-4-8.9-8.9-8.9c-4.9,0-8.9,4-8.9,8.9
		c0,3.2,1.7,6.1,4.5,7.7l-3.7,14.7H60.1z M49,51.3c-2.5-1.1-4-3.6-4-6.3c0-3.8,3.1-6.9,6.9-6.9s6.9,3.1,6.9,6.9c0,2.7-1.6,5.2-4,6.3
		l-0.8,0.3l3.5,13.8H46.3l3.5-13.8L49,51.3z"/>
</g>
</svg>
