<?xml version="1.0" encoding="utf-8"?>
<!-- Generator: Adobe Illustrator 19.0.0, SVG Export Plug-In . SVG Version: 6.00 Build 0)  -->
<svg version="1.1" id="Capa_1" xmlns="http://www.w3.org/2000/svg" xmlns:xlink="http://www.w3.org/1999/xlink" x="0px" y="0px"
	 viewBox="-454 325.5 114.3 118.5" style="enable-background:new -454 325.5 114.3 118.5;" xml:space="preserve">
<style type="text/css">
	.st0{fill:#74B3B5;}
</style>
<g>
	<path class="st0" d="M-451.7,376.7c0,16,7.7,31,20.5,40.4v23.7h4V415l-0.8-0.6c-12.3-8.6-19.7-22.7-19.7-37.7c0-9.6,3-18.5,8-25.9
		l-2.9-2.9C-448.3,356.1-451.7,366-451.7,376.7z"/>
	<path class="st0" d="M-352.1,370.8c-0.5-4.1-1.5-8.2-3-12c-5.2-13.7-16.2-24.4-30-29.3c-5.4-1.8-10.9-2.8-16.6-2.8
		c-10.7,0-20.6,3.4-28.7,9.1l2.9,2.9c7.4-5,16.3-8,25.9-8c5.2,0,10.4,0.9,15.3,2.6c12.7,4.5,22.8,14.3,27.6,26.9
		c1.4,3.6,2.3,7.5,2.8,11.3v0.3l0.1,0.3c4.7,11.4,9.9,24.8,10.5,28.2c0.6,2.9,0.1,3.7,0,3.9c-0.2,0.3-0.9,0.4-2,0.4h-8.5l-0.2,1.9
		c-0.5,9.6-2.3,18.9-3.8,20s-10.8,1.4-18.5,1l-2.1-0.1v13.3h4v-9c5.4,0.2,16,0.3,19-1.9c3.5-2.6,4.8-15.1,5.3-21.1h4.7
		c1.5,0,3.7-0.2,5.1-1.9c1.3-1.5,1.5-3.7,0.8-7.2C-342.3,395.1-349.1,378.2-352.1,370.8z"/>
	<path class="st0" d="M-439,333.7l-1.7-1.7v3.4v2.3h-2.3h-3.4l1.7,1.7l12.4,12.4l0.3,0.3h4.3l1.6,1.6c-5.9,6.2-9.1,14.4-9.1,23
		c0,8.9,3.5,17.4,9.8,23.7c6.3,6.3,14.7,9.8,23.7,9.8c8.9,0,17.4-3.5,23.7-9.8s9.8-14.7,9.8-23.7c0-8.9-3.5-17.4-9.8-23.7
		c-6.3-6.3-14.7-9.8-23.7-9.8c-8.6,0-16.7,3.2-23,9.1l-1.6-1.6v-4.3l-0.3-0.3L-439,333.7z M-428.2,350.1h-2.9l-10.5-10.4h2.9v-2.9
		l10.4,10.4L-428.2,350.1L-428.2,350.1z M-401.7,345.2c8.4,0,16.3,3.3,22.3,9.2c5.9,6,9.2,13.9,9.2,22.3c0,8.4-3.3,16.3-9.2,22.3
		c-5.9,5.9-13.9,9.2-22.3,9.2c-8.4,0-16.3-3.3-22.3-9.2s-9.2-13.9-9.2-22.3c0-8.1,3-15.7,8.5-21.6l6.4,6.4
		c-3.8,4.2-5.9,9.5-5.9,15.2c0,6,2.3,11.6,6.6,15.9c4.3,4.3,9.9,6.6,15.9,6.6c12.4,0,22.5-10.1,22.5-22.5c0-6-2.3-11.6-6.6-15.9
		c-4.3-4.3-9.9-6.6-15.9-6.6c-5.7,0-11,2.1-15.2,5.9l-6.4-6.4C-417.4,348.2-409.8,345.2-401.7,345.2z M-410.5,369.3
		c-1.7,2-2.7,4.6-2.7,7.4c0,6.3,5.2,11.5,11.5,11.5c6.3,0,11.5-5.2,11.5-11.5c0-6.3-5.2-11.5-11.5-11.5c-2.8,0-5.4,1-7.4,2.7
		l-6.4-6.4c3.8-3.4,8.6-5.3,13.7-5.3c5.5,0,10.6,2.1,14.5,6c3.9,3.9,6,9,6,14.5c0,11.3-9.2,20.5-20.5,20.5c-5.5,0-10.6-2.1-14.5-6
		c-3.9-3.9-6-9-6-14.5c0-5.1,1.9-10,5.3-13.7L-410.5,369.3z M-404,375.8c-0.1,0.3-0.2,0.6-0.2,0.9c0,1.4,1.1,2.5,2.5,2.5
		c1.4,0,2.5-1.1,2.5-2.5c0-1.4-1.1-2.5-2.5-2.5c-0.3,0-0.6,0.1-0.9,0.2l-5.1-5.1c1.6-1.3,3.7-2.1,6-2.1c5.2,0,9.5,4.3,9.5,9.5
		c0,5.2-4.3,9.5-9.5,9.5c-5.2,0-9.5-4.3-9.5-9.5c0-2.3,0.8-4.3,2.1-6L-404,375.8z"/>
</g>
</svg>
