<?xml version="1.0" encoding="utf-8"?>
<!-- Generator: Adobe Illustrator 19.0.0, SVG Export Plug-In . SVG Version: 6.00 Build 0)  -->
<svg version="1.1" id="Capa_1" xmlns="http://www.w3.org/2000/svg" xmlns:xlink="http://www.w3.org/1999/xlink" x="0px" y="0px"
	 viewBox="-453 326 115.1 118" style="enable-background:new -453 326 115.1 118;" xml:space="preserve">
<style type="text/css">
	.st0{fill:#74B3B5;}
</style>
<g>
	<path class="st0" d="M-352.3,371.7c-0.5-4.1-1.5-8.2-3-12c-5.3-13.7-16.2-24.4-30-29.2c-5.3-1.9-10.9-2.8-16.6-2.8
		c-27.5,0-50,22.4-50,50c0,16,7.7,31,20.5,40.4v23.7h4v-26l-0.9-0.6c-12.2-8.6-19.6-22.7-19.6-37.7c0-25.3,20.6-46,46-46
		c5.2,0,10.4,0.9,15.3,2.6c12.7,4.5,22.7,14.3,27.6,27c1.4,3.6,2.3,7.5,2.8,11.3v0.3l0.1,0.3c4.7,11.4,9.9,24.8,10.5,28.2
		c0.6,2.9,0.1,3.7,0,3.9c-0.2,0.3-0.9,0.4-2,0.4h-8.5l-0.1,1.9c-0.5,9.6-2.3,18.9-3.8,20s-10.8,1.4-18.5,1l-2.1-0.1v13.3h4v-9
		c5.4,0.2,16,0.3,19-1.9c3.5-2.6,4.8-15.1,5.3-21.1h4.7c1.5,0,3.7-0.2,5.1-1.9c1.3-1.5,1.5-3.7,0.8-7.2
		C-342.5,395.9-349.3,379-352.3,371.7z"/>
	<path class="st0" d="M-423.4,390.7c-1.2,0.3-2.3,0.9-3.1,1.8c-2.7,2.7-2.7,7,0,9.6c1.3,1.3,3,2,4.8,2c1.8,0,3.5-0.7,4.8-2
		c0.9-0.9,1.5-1.9,1.8-3.1c0-0.2,0.2-0.3,0.3-0.3c0.2,0,0.3,0,0.4,0.1l11.7,11.7c0.2,0.2,0.5,0.3,0.7,0.3c0.3,0,0.5-0.1,0.7-0.3
		l11.7-11.7c0.6-0.6,0.9-1.5,0.6-2.4c-0.2-0.8-0.9-1.5-1.8-1.7c-0.8-0.2-1.6-0.6-2.2-1.3c-1.9-1.9-1.9-4.9,0-6.8
		c0.9-0.9,2.1-1.4,3.4-1.4c1.3,0,2.5,0.5,3.4,1.4c0.6,0.6,1,1.4,1.3,2.2c0.2,0.9,0.9,1.5,1.7,1.8c0.2,0.1,0.4,0.1,0.6,0.1
		c0.7,0,1.3-0.3,1.7-0.7l11.7-11.7c0.2-0.2,0.3-0.4,0.3-0.7c0-0.3-0.1-0.5-0.3-0.7l-11.5-11.8c-0.1-0.1-0.2-0.3-0.1-0.4
		c0-0.2,0.2-0.3,0.3-0.3c1.2-0.3,2.3-0.9,3.1-1.8c1.3-1.3,2-3,2-4.8c0-1.8-0.7-3.5-2-4.8s-3-2-4.8-2c-1.8,0-3.5,0.7-4.8,2
		c-0.9,0.9-1.5,1.9-1.8,3.1c0,0.2-0.2,0.3-0.3,0.3c-0.2,0-0.3,0-0.4-0.1l-11.7-11.8c-0.4-0.4-1-0.4-1.4,0l-11.8,11.7
		c-0.6,0.6-0.9,1.5-0.6,2.4c0.2,0.8,0.9,1.5,1.8,1.7c0.8,0.2,1.6,0.6,2.2,1.3c1.9,1.9,1.9,4.9,0,6.8c-0.9,0.9-2.1,1.4-3.4,1.4
		c-1.3,0-2.5-0.5-3.4-1.4c-0.6-0.6-1-1.4-1.3-2.2c-0.2-0.9-0.9-1.5-1.7-1.8c-0.8-0.2-1.8,0-2.4,0.6l-11.7,11.8
		c-0.2,0.2-0.3,0.4-0.3,0.7s0.1,0.5,0.3,0.7l11.7,11.7c0.1,0.1,0.2,0.3,0.1,0.4C-423.1,390.5-423.2,390.7-423.4,390.7z
		 M-421.8,388.5l-11-11l11-11c0.1-0.1,0.3-0.2,0.4-0.1c0.2,0,0.3,0.2,0.3,0.3c0.3,1.2,0.9,2.3,1.8,3.1c1.3,1.3,3,2,4.8,2
		s3.5-0.7,4.8-2c2.7-2.7,2.7-7,0-9.6c-0.9-0.9-1.9-1.5-3.1-1.8c-0.2,0-0.3-0.2-0.3-0.3c0-0.2,0-0.3,0.1-0.4l11-11l11,11
		c0.6,0.6,1.5,0.9,2.4,0.6c0.8-0.2,1.5-0.9,1.7-1.8c0.2-0.8,0.6-1.6,1.3-2.2c0.9-0.9,2.1-1.4,3.4-1.4c1.3,0,2.5,0.5,3.4,1.4
		c0.9,0.9,1.4,2.1,1.4,3.4c0,1.3-0.5,2.5-1.4,3.4c-0.6,0.6-1.4,1-2.2,1.3c-0.8,0.2-1.5,0.9-1.8,1.7c-0.2,0.8,0,1.8,0.6,2.4l11,11
		l-11,11c-0.1,0.1-0.3,0.2-0.4,0.1c-0.2,0-0.3-0.2-0.3-0.3c-0.3-1.2-0.9-2.3-1.8-3.1c-1.3-1.3-3-2-4.8-2l0,0c-1.8,0-3.5,0.7-4.8,2
		c-2.7,2.7-2.7,7,0,9.6c0.9,0.9,1.9,1.5,3.1,1.8c0.2,0,0.3,0.2,0.3,0.3c0,0.2,0,0.3-0.1,0.4l-11,11l-11-11c-0.5-0.5-1.1-0.7-1.7-0.7
		c-0.2,0-0.4,0-0.6,0.1c-0.8,0.2-1.5,0.9-1.7,1.8c-0.2,0.8-0.6,1.6-1.3,2.2c-0.9,0.9-2.1,1.4-3.4,1.4c-1.3,0-2.5-0.5-3.4-1.4
		c-1.9-1.9-1.9-4.9,0-6.8c0.6-0.6,1.4-1,2.2-1.3c0.9-0.2,1.5-0.9,1.8-1.7C-420.9,390.1-421.2,389.1-421.8,388.5z"/>
</g>
</svg>
