<?xml version="1.0" encoding="utf-8"?>
<!-- Generator: Adobe Illustrator 19.0.0, SVG Export Plug-In . SVG Version: 6.00 Build 0)  -->
<svg version="1.1" id="Capa_1" xmlns="http://www.w3.org/2000/svg" xmlns:xlink="http://www.w3.org/1999/xlink" x="0px" y="0px"
	 viewBox="0 0 115.1 118" style="enable-background:new 0 0 115.1 118;" xml:space="preserve">
<style type="text/css">
	.st0{fill:#030104;}
</style>
<g>
	<path class="st0" d="M111.8,74.6c-0.9-4.5-7.7-21.4-10.7-28.7c-0.5-4.1-1.5-8.2-3-12C92.9,20.2,82,9.5,68.2,4.7
		c-5.3-1.9-10.9-2.8-16.6-2.8c-27.5,0-50,22.4-50,50c0,16,7.7,31,20.5,40.4v23.7h4V90.1l-0.9-0.6C13,80.9,5.6,66.8,5.6,51.8
		c0-25.3,20.6-46,46-46c5.2,0,10.4,0.9,15.3,2.6c12.7,4.5,22.8,14.3,27.6,26.9c1.4,3.6,2.3,7.5,2.8,11.3l0,0.3l0.1,0.3
		c4.7,11.4,9.9,24.8,10.5,28.2c0.6,2.9,0.1,3.7,0,3.9c-0.2,0.3-1,0.4-2,0.4l-8.5,0l-0.1,1.9c-0.5,9.6-2.3,18.9-3.8,20
		c-1.5,1.1-10.8,1.4-18.5,1l-2.1-0.1v13.3h4v-9c5.4,0.2,16,0.3,19-1.9c3.5-2.6,4.8-15.1,5.3-21.1l4.7,0c1.5,0,3.7-0.2,5.1-1.9
		C112.2,80.3,112.5,78.1,111.8,74.6z"/>
	<path class="st0" d="M85.1,51.8c0-14.9-9.7-27.4-22.9-31.8c-3.4-1.1-7.2-1.7-10.6-1.7c-18.8,0-33.5,15.4-33.5,33.5
		c0,18.4,15,33.5,33.5,33.5c7.9,0,15.4-2.8,21.1-7.5C80.3,71.6,85.1,62.2,85.1,51.8z M51.6,40.9c6,0,10.9,4.9,10.9,10.9
		c0,6-4.9,10.9-10.9,10.9c-6,0-10.9-4.9-10.9-10.9C40.7,45.8,45.6,40.9,51.6,40.9z M54.2,39.2c-0.9-0.2-1.8-0.3-2.7-0.3
		c-2.4,0-4.7,0.7-6.6,1.9L44,39.5l15.9-15.9l-5,14.9L54.2,39.2z M43.4,38.7l-4.1-5.8l12.6-12.6c2.9,0,5.8,0.5,8.6,1.3L43.4,38.7z
		 M38.7,32L35.8,28l-1.2-1.7l2.4-2.4c4.2-2.2,8.7-3.4,13.4-3.5L38.7,32z M32.5,26.7l2,2.8l8.8,12.4c-2.6,2.2-4.3,5.3-4.6,8.9H20.1
		C20.4,41.3,24.9,32.5,32.5,26.7z M26.2,52.8l-5.4,5.4c-0.4-1.8-0.6-3.6-0.7-5.4H26.2z M27.6,52.8h9.9L23.7,66.5
		c-1.2-2.2-2.1-4.6-2.7-7.2L27.6,52.8z M38.7,52.9c0.2,2.7,1.3,5.1,2.9,7L28.4,73.1c-1.6-1.7-3-3.6-4.2-5.7L38.7,52.9z M42.3,60.7
		c1.7,1.8,3.9,3,6.3,3.6l-14,14c-2-1.3-3.8-2.8-5.5-4.4L42.3,60.7z M49.8,64.5c0.6,0.1,1.2,0.1,1.8,0.1c2.7,0,5.2-0.9,7.3-2.3
		l1.3,1.6L42.3,81.9c-2.4-0.7-4.7-1.8-6.8-3L49.8,64.5z M43.4,82.2l17.4-17.4l4.4,5.5l-13,13c-0.2,0-0.5,0-0.7,0
		C48.7,83.3,46,82.9,43.4,82.2z M65.9,71l4.4,5.5l-1.9,1.9c-4.4,2.8-9.5,4.5-14.8,4.8L65.9,71z M72.2,75.6L60.4,61.1
		c2.5-2.3,4-5.7,4-9.3c0-5.3-3.3-9.9-7.9-11.9l5.9-17.7c12.4,4.6,20.6,16.3,20.6,29.6C83.1,61,79.1,69.6,72.2,75.6z"/>
</g>
</svg>
