<?xml version="1.0" encoding="utf-8"?>
<!-- Generator: Adobe Illustrator 19.0.0, SVG Export Plug-In . SVG Version: 6.00 Build 0)  -->
<svg version="1.1" id="Capa_1" xmlns="http://www.w3.org/2000/svg" xmlns:xlink="http://www.w3.org/1999/xlink" x="0px" y="0px"
	 viewBox="0 0 115.1 118" style="enable-background:new 0 0 115.1 118;" xml:space="preserve">
<style type="text/css">
	.st0{fill:#030104;}
</style>
<g>
	<path class="st0" d="M101.5,45.7c-0.5-4.1-1.5-8.2-3-12c-5.3-13.7-16.2-24.4-30-29.2c-5.3-1.9-10.9-2.8-16.6-2.8
		C24.4,1.5,2,24,2,51.5c0,16,7.7,31,20.5,40.4v23.7h4V89.8l-0.9-0.6C13.3,80.6,6,66.5,6,51.5c0-25.3,20.6-46,46-46
		c5.2,0,10.4,0.9,15.3,2.6C79.9,12.6,90,22.4,94.8,35.1c1.4,3.6,2.3,7.5,2.8,11.3l0,0.3l0.1,0.3c4.7,11.4,9.9,24.8,10.5,28.2
		c0.6,2.9,0.1,3.7,0,3.9c-0.2,0.3-1,0.4-2,0.4l-8.5,0l-0.1,1.9c-0.5,9.6-2.3,18.9-3.8,20c-1.5,1.1-10.8,1.4-18.5,1l-2.1-0.1v13.3h4
		v-9c5.4,0.2,16,0.3,19-1.9c3.5-2.6,4.8-15.1,5.3-21.1l4.7,0c1.5,0,3.7-0.2,5.1-1.9c1.3-1.5,1.5-3.7,0.8-7.2
		C111.3,69.9,104.5,53,101.5,45.7z"/>
	<path class="st0" d="M75.6,75.2c6.3-6.3,9.8-14.7,9.8-23.7c0-8.9-3.5-17.4-9.8-23.7C69.3,21.5,60.9,18,51.9,18
		c-8.9,0-17.4,3.5-23.7,9.8c-6.3,6.3-9.8,14.7-9.8,23.7c0,8.9,3.5,17.4,9.8,23.7C34.6,81.5,43,85,51.9,85S69.3,81.5,75.6,75.2z
		 M20.4,51.5c0-8.4,3.3-16.3,9.2-22.3c5.9-5.9,13.9-9.2,22.3-9.2c8.4,0,16.3,3.3,22.3,9.2c5.9,5.9,9.2,13.9,9.2,22.3
		c0,8.4-3.3,16.3-9.2,22.3C68.2,79.7,60.3,83,51.9,83c-8.4,0-16.3-3.3-22.3-9.2C23.7,67.8,20.4,59.9,20.4,51.5z"/>
	<path class="st0" d="M41.8,37.2c-5.5,0-8,4.2-8,8.1c0,3.7,2.4,7.8,7.5,8c0.4,2.8-1.8,6.5-3.1,8.7c-1.1,1.9-1.6,2.8-1.2,3.6
		c0.2,0.4,0.6,0.6,1.1,0.6c0.4,0,1-0.2,1.9-0.6c6.4-3.3,11.2-12.2,10.3-19.4C50.1,43.4,48.6,37.2,41.8,37.2z M39.7,63.4
		c0.1-0.1,0.2-0.3,0.2-0.4c1.7-2.9,4.3-7.3,3.2-11l-0.2-0.7l-1.2,0c-4-0.1-5.8-3.1-5.8-6c0-3,1.8-6.1,6-6.1c5.1,0,6.3,4.5,6.6,7.1
		C49.1,52.4,45.1,60.2,39.7,63.4z"/>
	<path class="st0" d="M60.9,53.2c0.6,3.2-1.7,6.9-3,9.2c-1,1.6-1.4,2.3-1,3.1c0.2,0.4,0.6,0.6,1,0.6c0.4,0,0.9-0.2,1.7-0.6
		c6.4-3.3,11.2-12.2,10.3-19.4c-0.3-2.7-1.8-8.9-8.6-8.9c-2.4,0-4.5,0.9-6,2.5c-1.3,1.5-2,3.4-2,5.5C53.4,49,55.7,53,60.9,53.2z
		 M56.9,41c1.1-1.2,2.6-1.9,4.5-1.9c5.1,0,6.3,4.5,6.6,7.1c0.7,5.9-3,13.3-8.1,16.7c1.6-2.7,4-7,2.8-11.1l-0.2-0.7l-1.2,0
		c-4-0.1-5.8-3.1-5.8-6C55.4,43.6,55.9,42.1,56.9,41z"/>
</g>
</svg>
