<?xml version="1.0" encoding="utf-8"?>
<!-- Generator: Adobe Illustrator 19.0.0, SVG Export Plug-In . SVG Version: 6.00 Build 0)  -->
<svg version="1.1" id="Capa_1" xmlns="http://www.w3.org/2000/svg" xmlns:xlink="http://www.w3.org/1999/xlink" x="0px" y="0px"
	 viewBox="-454 325.7 114.3 119.3" style="enable-background:new -454 325.7 114.3 119.3;" xml:space="preserve">
<style type="text/css">
	.st0{fill:#74B3B5;}
</style>
<g>
	<path class="st0" d="M-351.9,372.6c-0.5-4.1-1.5-8.2-3-12c-5.2-13.7-16.1-24.4-30-29.3c-5.3-1.9-10.9-2.8-16.6-2.8
		c-27.5,0-50,22.4-50,50c0,16,7.7,31,20.5,40.4v23.7h4v-25.9l-0.9-0.6c-12.2-8.6-19.5-22.7-19.5-37.6c0-25.3,20.6-46,46-46
		c5.2,0,10.4,0.9,15.3,2.6c12.7,4.5,22.8,14.3,27.6,26.9c1.4,3.6,2.3,7.5,2.8,11.3v0.3l0.1,0.3c4.7,11.4,9.9,24.8,10.5,28.2
		c0.6,2.9,0.1,3.7,0,3.9c-0.2,0.3-1,0.4-2,0.4h-8.5l-0.1,1.9c-0.5,9.6-2.3,18.9-3.8,20s-10.8,1.4-18.5,1l-2.1-0.1v13.3h4v-9
		c5.4,0.2,16,0.3,19-1.9c3.5-2.6,4.8-15.1,5.3-21.1h4.7c1.5,0,3.7-0.2,5.1-1.9c1.3-1.5,1.5-3.7,0.8-7.2
		C-342.1,396.8-348.9,380-351.9,372.6z"/>
	<polygon class="st0" points="-415,442.5 -415,392.3 -373.8,392.3 -377.5,396 -376.1,397.4 -370,391.3 -376,385.2 -377.5,386.6 
		-373.8,390.3 -415,390.3 -415,378.9 -385.8,378.9 -389.5,382.6 -388.1,384 -382,377.9 -388,371.8 -389.5,373.2 -385.8,376.9 
		-415,376.9 -415,369.9 -415,365.5 -398.8,365.5 -402.5,369.2 -401.1,370.6 -395,364.5 -401,358.4 -402.5,359.8 -398.8,363.5 
		-415,363.5 -415,353.1 -415,352.8 -411.3,356.4 -409.9,355 -416,348.9 -422.1,354.9 -420.7,356.4 -417,352.7 -417,353.1 
		-417,369.9 -417,376.9 -431.1,376.9 -427.4,373.2 -428.8,371.8 -435,377.9 -428.9,384 -427.5,382.6 -431.2,378.9 -417,378.9 
		-417,442.5 	"/>
</g>
</svg>
