<?xml version="1.0" encoding="utf-8"?>
<!-- Generator: Adobe Illustrator 19.0.0, SVG Export Plug-In . SVG Version: 6.00 Build 0)  -->
<svg version="1.1" id="Capa_1" xmlns="http://www.w3.org/2000/svg" xmlns:xlink="http://www.w3.org/1999/xlink" x="0px" y="0px"
	 viewBox="-453 326 115.1 118" style="enable-background:new -453 326 115.1 118;" xml:space="preserve">
<style type="text/css">
	.st0{fill:#74B3B5;}
</style>
<g>
	<path class="st0" d="M-351.5,371.7c-0.5-4.1-1.5-8.2-3-12c-5.3-13.7-16.2-24.4-30-29.2c-5.3-1.9-10.9-2.8-16.6-2.8
		c-27.5-0.2-49.9,22.3-49.9,49.8c0,16,7.7,31,20.5,40.4v23.7h4v-25.8l-0.9-0.6c-12.3-8.6-19.6-22.7-19.6-37.7c0-25.3,20.6-46,46-46
		c5.2,0,10.4,0.9,15.3,2.6c12.6,4.5,22.7,14.3,27.5,27c1.4,3.6,2.3,7.5,2.8,11.3v0.3l0.1,0.3c4.7,11.4,9.9,24.8,10.5,28.2
		c0.6,2.9,0.1,3.7,0,3.9c-0.2,0.3-1,0.4-2,0.4h-8.5l-0.1,1.9c-0.5,9.6-2.3,18.9-3.8,20s-10.8,1.4-18.5,1l-2.1-0.1v13.3h4v-9
		c5.4,0.2,16,0.3,19-1.9c3.5-2.6,4.8-15.1,5.3-21.1h4.7c1.5,0,3.7-0.2,5.1-1.9c1.3-1.5,1.5-3.7,0.8-7.2
		C-341.7,395.9-348.5,379-351.5,371.7z"/>
	<path class="st0" d="M-377.4,401.2c6.3-6.3,9.8-14.7,9.8-23.7c0-8.9-3.5-17.4-9.8-23.7c-6.3-6.3-14.7-9.8-23.7-9.8
		c-8.9,0-17.4,3.5-23.7,9.8c-6.3,6.3-9.8,14.7-9.8,23.7c0,8.9,3.5,17.4,9.8,23.7c6.4,6.3,14.8,9.8,23.7,9.8
		S-383.7,407.5-377.4,401.2z M-432.6,377.5c0-8.4,3.3-16.3,9.2-22.3c5.9-5.9,13.9-9.2,22.3-9.2s16.3,3.3,22.3,9.2
		c5.9,5.9,9.2,13.9,9.2,22.3s-3.3,16.3-9.2,22.3c-6,5.9-13.9,9.2-22.3,9.2s-16.3-3.3-22.3-9.2C-429.3,393.8-432.6,385.9-432.6,377.5
		z"/>
	<path class="st0" d="M-411.2,363.2c-5.5,0-8,4.2-8,8.1c0,3.7,2.4,7.8,7.5,8c0.4,2.8-1.8,6.5-3.1,8.7c-1.1,1.9-1.6,2.8-1.2,3.6
		c0.2,0.4,0.6,0.6,1.1,0.6c0.4,0,1-0.2,1.9-0.6c6.4-3.3,11.2-12.2,10.3-19.4C-402.9,369.4-404.4,363.2-411.2,363.2z M-413.3,389.4
		c0.1-0.1,0.2-0.3,0.2-0.4c1.7-2.9,4.3-7.3,3.2-11l-0.2-0.7h-1.2c-4-0.1-5.8-3.1-5.8-6c0-3,1.8-6.1,6-6.1c5.1,0,6.3,4.5,6.6,7.1
		C-403.9,378.4-407.9,386.2-413.3,389.4z"/>
	<path class="st0" d="M-392.1,379.2c0.6,3.2-1.7,6.9-3,9.2c-1,1.6-1.4,2.3-1,3.1c0.2,0.4,0.6,0.6,1,0.6s0.9-0.2,1.7-0.6
		c6.4-3.3,11.2-12.2,10.3-19.4c-0.3-2.7-1.8-8.9-8.6-8.9c-2.4,0-4.5,0.9-6,2.5c-1.3,1.5-2,3.4-2,5.5
		C-399.6,375-397.3,379-392.1,379.2z M-396.1,367c1.1-1.2,2.6-1.9,4.5-1.9c5.1,0,6.3,4.5,6.6,7.1c0.7,5.9-3,13.3-8.1,16.7
		c1.6-2.7,4-7,2.8-11.1l-0.2-0.7h-1.2c-4-0.1-5.8-3.1-5.8-6C-397.6,369.6-397.1,368.1-396.1,367z"/>
</g>
</svg>
