<?xml version="1.0" encoding="utf-8"?>
<!-- Generator: Adobe Illustrator 19.0.0, SVG Export Plug-In . SVG Version: 6.00 Build 0)  -->
<svg version="1.1" id="Capa_1" xmlns="http://www.w3.org/2000/svg" xmlns:xlink="http://www.w3.org/1999/xlink" x="0px" y="0px"
	 viewBox="0 0 114.3 119.3" style="enable-background:new 0 0 114.3 119.3;" xml:space="preserve">
<style type="text/css">
	.st0{fill:#030104;}
</style>
<g>
	<path class="st0" d="M102.1,46.9c-0.5-4.1-1.5-8.2-3-12C93.9,21.2,83,10.5,69.1,5.6c-5.3-1.9-10.9-2.8-16.6-2.8
		c-27.5,0-50,22.4-50,50c0,16,7.7,31,20.5,40.4v23.7h4V91l-0.9-0.6C13.9,81.8,6.6,67.7,6.6,52.8c0-25.3,20.6-46,46-46
		c5.2,0,10.4,0.9,15.3,2.6c12.7,4.5,22.8,14.3,27.6,26.9c1.4,3.6,2.3,7.5,2.8,11.3l0,0.3l0.1,0.3c4.7,11.4,9.9,24.8,10.5,28.2
		c0.6,2.9,0.1,3.7,0,3.9c-0.2,0.3-1,0.4-2,0.4l-8.5,0l-0.1,1.9c-0.5,9.6-2.3,18.9-3.8,20c-1.5,1.1-10.8,1.4-18.5,1l-2.1-0.1v13.3h4
		v-9c5.4,0.2,16,0.3,19-1.9c3.5-2.6,4.8-15.1,5.3-21.1l4.7,0c1.5,0,3.7-0.2,5.1-1.9c1.3-1.5,1.5-3.7,0.8-7.2
		C111.9,71.1,105.1,54.3,102.1,46.9z"/>
	<polygon class="st0" points="39,116.8 39,66.6 80.2,66.6 76.5,70.3 77.9,71.7 84,65.6 78,59.5 76.5,60.9 80.2,64.6 39,64.6 
		39,53.2 68.2,53.2 64.5,56.9 65.9,58.3 72,52.2 66,46.1 64.5,47.5 68.2,51.2 39,51.2 39,44.2 39,39.8 55.2,39.8 51.5,43.5 
		52.9,44.9 59,38.8 53,32.7 51.5,34.1 55.2,37.8 39,37.8 39,27.4 39,27.1 42.7,30.7 44.1,29.3 38,23.2 31.9,29.2 33.3,30.7 37,27 
		37,27.4 37,44.2 37,51.2 22.9,51.2 26.6,47.5 25.2,46.1 19,52.2 25.1,58.3 26.5,56.9 22.8,53.2 37,53.2 37,116.8 	"/>
</g>
</svg>
