<?xml version="1.0" encoding="utf-8"?>
<!-- Generator: Adobe Illustrator 19.0.0, SVG Export Plug-In . SVG Version: 6.00 Build 0)  -->
<svg version="1.1" id="Capa_1" xmlns="http://www.w3.org/2000/svg" xmlns:xlink="http://www.w3.org/1999/xlink" x="0px" y="0px"
	 viewBox="0 0 116.7 118.3" style="enable-background:new 0 0 116.7 118.3;" xml:space="preserve">
<style type="text/css">
	.st0{fill:#030104;}
</style>
<g>
	<path class="st0" d="M103.9,46.6c-0.5-4.1-1.5-8.2-3-12c-5.3-13.7-16.2-24.4-30-29.2C65.6,3.5,60,2.5,54.3,2.5
		c-9.5,0-18.5,2.7-26,7.3l4.3,2.1C39,8.5,46.4,6.5,54.3,6.5c5.2,0,10.4,0.9,15.3,2.6C82.3,13.6,92.4,23.4,97.2,36
		c1.4,3.6,2.3,7.5,2.8,11.3l0,0.3l0.1,0.3c4.7,11.4,9.9,24.8,10.5,28.2c0.6,2.9,0.1,3.7,0,3.9c-0.2,0.3-0.9,0.4-2,0.4l-8.5,0
		l-0.1,1.9c-0.5,9.6-2.3,18.9-3.8,20c-1.5,1.1-10.8,1.4-18.5,1l-2.1-0.1v13.3h4v-9c5.4,0.2,16,0.3,19-1.9c3.5-2.6,4.8-15.1,5.3-21.1
		l4.7,0c1.5,0,3.7-0.2,5.1-1.9c1.3-1.5,1.5-3.7,0.8-7.2C113.7,70.9,106.9,54,103.9,46.6z"/>
	<path class="st0" d="M4.4,52.5c0,16,7.7,31,20.5,40.4v23.7h4V90.8L28,90.2C15.7,81.6,8.4,67.5,8.4,52.5c0-5,0.8-9.7,2.3-14.2
		L8.3,33C5.8,39,4.4,45.6,4.4,52.5z"/>
	<path class="st0" d="M2,3.6l19.7,45.2l6.8-2.3l8.5,9.4c0.1,1.3,0.2,2.5,0.5,3.8l2-0.4c-0.1-0.7-0.3-1.4-0.3-2.1l10.2-16.7l16.6-5
		L2,3.6z M39.4,42.8l-0.6-1.9l-15.9,5.3l-15.2-35l39.8,28.4l-9,14.7l-7.8-8.6L39.4,42.8z M48.9,38.3L6.3,7.9l54.2,26.9L48.9,38.3z"
		/>
	<path class="st0" d="M64.6,78.6l0.1,2c1.4-0.1,2.8-0.3,4.2-0.6L68.3,78C67.1,78.3,65.8,78.5,64.6,78.6z"/>
	<path class="st0" d="M65.8,64.1c-1.1,0.1-2.1-0.1-3-0.5l-0.7,1.9c1.1,0.4,2.2,0.6,3.4,0.6c0.2,0,0.3,0,0.5,0c0.2,0,0.4,0,0.6,0
		l-0.2-2C66.1,64.1,66,64.1,65.8,64.1z"/>
	<path class="st0" d="M68.7,46.6c1.2,0,2.5,0.2,3.7,0.6l0.6-1.9c-1.4-0.4-2.8-0.7-4.2-0.7L68.7,46.6z"/>
	<path class="st0" d="M69.2,62.6l1.4,1.5c1.1-1.1,1.9-2.5,2.2-4l-2-0.4C70.6,60.8,70.1,61.8,69.2,62.6z"/>
	<path class="st0" d="M56.4,79.7c1.3,0.4,2.7,0.6,4.1,0.8l0.2-2c-1.3-0.1-2.5-0.4-3.8-0.7L56.4,79.7z"/>
	<path class="st0" d="M71.8,76.7l0.9,1.8c1.2-0.6,2.4-1.4,3.5-2.3L75,74.6C74,75.4,73,76.1,71.8,76.7z"/>
	<path class="st0" d="M60.6,47.2l1.3,1.6c1-0.8,2-1.3,3.2-1.7l-0.6-1.9C63.1,45.6,61.8,46.3,60.6,47.2z"/>
	<path class="st0" d="M56.4,58.9c0.4,1.4,1.1,2.8,2,3.9l1.5-1.3c-0.8-0.9-1.3-2-1.6-3.1L56.4,58.9z"/>
	<path class="st0" d="M56.3,54.6l2,0.3c0.2-1.2,0.6-2.3,1.2-3.4l-1.7-1C57.1,51.8,56.6,53.1,56.3,54.6z"/>
	<path class="st0" d="M80.6,54.3c0.5,1.1,0.9,2.3,1.1,3.5l2-0.3c-0.2-1.4-0.7-2.8-1.3-4.1L80.6,54.3z"/>
	<path class="st0" d="M50,74.6l-1.1,1.7c1.2,0.8,2.4,1.4,3.6,2l0.8-1.8C52.2,76,51,75.3,50,74.6z"/>
	<path class="st0" d="M83.1,65.9c0.4-1.3,0.6-2.7,0.7-4.1l-2-0.1c-0.1,1.3-0.3,2.5-0.6,3.7L83.1,65.9z"/>
	<path class="st0" d="M77.7,72l1.5,1.3c0.9-1.1,1.7-2.3,2.3-3.5l-1.8-0.9C79.2,69.9,78.5,71,77.7,72z"/>
	<path class="st0" d="M76.8,47.1l-1.1,1.7c1,0.7,2,1.5,2.8,2.4l1.5-1.3C79.1,48.8,78,47.9,76.8,47.1z"/>
	<path class="st0" d="M46.9,72.3c-0.9-0.9-1.8-1.8-2.6-2.8l-1.6,1.3c0.9,1.1,1.8,2.1,2.8,3L46.9,72.3z"/>
	<path class="st0" d="M38.6,63.6c0.4,1.1,0.9,2.2,1.5,3.3c0.1,0.2,0.2,0.3,0.3,0.5l1.7-1c-0.3-0.5-0.5-1-0.8-1.5
		c-0.3-0.6-0.6-1.3-0.9-2L38.6,63.6z"/>
</g>
</svg>
