<?xml version="1.0" encoding="utf-8"?>
<!-- Generator: Adobe Illustrator 19.0.0, SVG Export Plug-In . SVG Version: 6.00 Build 0)  -->
<svg version="1.1" id="Capa_1" xmlns="http://www.w3.org/2000/svg" xmlns:xlink="http://www.w3.org/1999/xlink" x="0px" y="0px"
	 viewBox="0 0 115.1 118" style="enable-background:new 0 0 115.1 118;" xml:space="preserve">
<style type="text/css">
	.st0{fill:#74B3B5;}
</style>
<g>
	<path class="st0" d="M101.6,46.1c-0.5-4.1-1.5-8.2-3-12c-5.3-13.7-16.2-24.4-30-29.2C63.2,3,57.6,2,52,2C24.4,2,2,24.4,2,52
		c0,16,7.7,31,20.5,40.4V116h4V90.2l-0.9-0.6C13.4,81,6,67,6,52C6,26.6,26.6,6,52,6c5.2,0,10.4,0.9,15.3,2.6
		C79.9,13.1,90,22.9,94.9,35.5c1.4,3.6,2.3,7.5,2.8,11.3l0,0.3l0.1,0.3c4.7,11.4,9.9,24.8,10.5,28.2c0.6,2.9,0.1,3.7,0,3.9
		c-0.2,0.3-1,0.4-2,0.4l-8.5,0l-0.1,1.9c-0.5,9.6-2.3,18.9-3.8,20c-1.5,1.1-10.8,1.4-18.5,1l-2.1-0.1V116h4v-9
		c5.4,0.2,16,0.3,19-1.9c3.5-2.6,4.8-15.1,5.3-21.1l4.7,0c1.5,0,3.7-0.2,5.1-1.9c1.3-1.5,1.5-3.7,0.8-7.2
		C111.3,70.3,104.6,53.5,101.6,46.1z"/>
	<path class="st0" d="M85.5,52c0-8.9-3.5-17.4-9.8-23.7c-6.3-6.3-14.7-9.8-23.7-9.8c-8.9,0-17.4,3.5-23.7,9.8
		C21.9,34.6,18.5,43,18.5,52c0,8.9,3.5,17.4,9.8,23.7C34.6,82,43,85.5,52,85.5c8.9,0,17.4-3.5,23.7-9.8C82,69.3,85.5,60.9,85.5,52z
		 M52,83.5c-8.4,0-16.3-3.3-22.3-9.2c-5.9-5.9-9.2-13.9-9.2-22.3s3.3-16.3,9.2-22.3c5.9-5.9,13.9-9.2,22.3-9.2
		c8.4,0,16.3,3.3,22.3,9.2c5.9,6,9.2,13.9,9.2,22.3s-3.3,16.3-9.2,22.3C68.3,80.2,60.4,83.5,52,83.5z"/>
	<path class="st0" d="M56.2,24L34.9,58h16.6l-3.9,22l21.3-34H52.4L56.2,24z M51.4,70.2L53.9,56H38.5l14-22.3L50,47.9h15.4L51.4,70.2
		z"/>
</g>
</svg>
