<?xml version="1.0" encoding="utf-8"?>
<!-- Generator: Adobe Illustrator 19.0.0, SVG Export Plug-In . SVG Version: 6.00 Build 0)  -->
<svg version="1.1" id="Capa_1" xmlns="http://www.w3.org/2000/svg" xmlns:xlink="http://www.w3.org/1999/xlink" x="0px" y="0px"
	 viewBox="0 0 115.1 118" style="enable-background:new 0 0 115.1 118;" xml:space="preserve">
<style type="text/css">
	.st0{fill:#030104;}
</style>
<g>
	<path class="st0" d="M100.7,45.7c-0.5-4.1-1.5-8.2-3-12c-5.3-13.7-16.2-24.4-30-29.2c-5.3-1.9-10.9-2.8-16.6-2.8
		c-27.5,0-50,22.4-50,50c0,16,7.7,31,20.5,40.4v23.7h4V89.8l-0.9-0.6C12.5,80.6,5.1,66.5,5.1,51.5c0-25.3,20.6-46,46-46
		c5.2,0,10.4,0.9,15.3,2.6C79.1,12.6,89.1,22.4,94,35.1c1.4,3.6,2.3,7.5,2.8,11.3l0,0.3l0.1,0.3c4.7,11.4,9.9,24.8,10.5,28.2
		c0.6,2.9,0.1,3.7,0,3.9c-0.2,0.3-0.9,0.4-2,0.4l-8.5,0l-0.1,1.9c-0.5,9.6-2.3,18.9-3.8,20c-1.5,1.1-10.8,1.4-18.5,1l-2.1-0.1v13.3
		h4v-9c5.4,0.2,16,0.3,19-1.9c3.5-2.6,4.8-15.1,5.3-21.1l4.7,0c1.5,0,3.7-0.2,5.1-1.9c1.3-1.5,1.5-3.7,0.8-7.2
		C110.5,69.9,103.7,53,100.7,45.7z"/>
	<path class="st0" d="M29.6,64.7c-1.2,0.3-2.3,0.9-3.1,1.8c-2.7,2.7-2.7,7,0,9.6c1.3,1.3,3,2,4.8,2c1.8,0,3.5-0.7,4.8-2
		c0.9-0.9,1.5-1.9,1.8-3.1c0-0.2,0.2-0.3,0.3-0.3c0.2,0,0.3,0,0.4,0.1l11.7,11.7c0.2,0.2,0.5,0.3,0.7,0.3c0.3,0,0.5-0.1,0.7-0.3
		l11.7-11.7c0.6-0.6,0.9-1.5,0.6-2.4c-0.2-0.8-0.9-1.5-1.8-1.7c-0.8-0.2-1.6-0.6-2.2-1.3c-1.9-1.9-1.9-4.9,0-6.8
		c0.9-0.9,2.1-1.4,3.4-1.4c1.3,0,2.5,0.5,3.4,1.4c0.6,0.6,1,1.4,1.3,2.2c0.2,0.9,0.9,1.5,1.7,1.8c0.2,0.1,0.4,0.1,0.6,0.1
		c0.7,0,1.3-0.3,1.7-0.7l11.7-11.7c0.2-0.2,0.3-0.4,0.3-0.7c0-0.3-0.1-0.5-0.3-0.7L72.3,39.1c-0.1-0.1-0.2-0.3-0.1-0.4
		c0-0.2,0.2-0.3,0.3-0.3c1.2-0.3,2.3-0.9,3.1-1.8c1.3-1.3,2-3,2-4.8c0-1.8-0.7-3.5-2-4.8c-1.3-1.3-3-2-4.8-2c-1.8,0-3.5,0.7-4.8,2
		c-0.9,0.9-1.5,1.9-1.8,3.1c0,0.2-0.2,0.3-0.3,0.3c-0.2,0-0.3,0-0.4-0.1L51.8,18.5c-0.4-0.4-1-0.4-1.4,0L38.6,30.2
		c-0.6,0.6-0.9,1.5-0.6,2.4c0.2,0.8,0.9,1.5,1.8,1.7c0.8,0.2,1.6,0.6,2.2,1.3c1.9,1.9,1.9,4.9,0,6.8c-0.9,0.9-2.1,1.4-3.4,1.4
		c-1.3,0-2.5-0.5-3.4-1.4c-0.6-0.6-1-1.4-1.3-2.2c-0.2-0.9-0.9-1.5-1.7-1.8c-0.8-0.2-1.8,0-2.4,0.6L18.1,50.8
		c-0.2,0.2-0.3,0.4-0.3,0.7c0,0.3,0.1,0.5,0.3,0.7l11.7,11.7c0.1,0.1,0.2,0.3,0.1,0.4C29.9,64.5,29.8,64.7,29.6,64.7z M31.2,62.5
		l-11-11l11-11c0.1-0.1,0.3-0.2,0.4-0.1c0.2,0,0.3,0.2,0.3,0.3c0.3,1.2,0.9,2.3,1.8,3.1c1.3,1.3,3,2,4.8,2c1.8,0,3.5-0.7,4.8-2
		c2.7-2.7,2.7-7,0-9.6c-0.9-0.9-1.9-1.5-3.1-1.8c-0.2,0-0.3-0.2-0.3-0.3c0-0.2,0-0.3,0.1-0.4l11-11l11,11c0.6,0.6,1.5,0.9,2.4,0.6
		c0.8-0.2,1.5-0.9,1.7-1.8c0.2-0.8,0.6-1.6,1.3-2.2c0.9-0.9,2.1-1.4,3.4-1.4c1.3,0,2.5,0.5,3.4,1.4c0.9,0.9,1.4,2.1,1.4,3.4
		c0,1.3-0.5,2.5-1.4,3.4c-0.6,0.6-1.4,1-2.2,1.3c-0.8,0.2-1.5,0.9-1.8,1.7c-0.2,0.8,0,1.8,0.6,2.4l11,11l-11,11
		c-0.1,0.1-0.3,0.2-0.4,0.1c-0.2,0-0.3-0.2-0.3-0.3c-0.3-1.2-0.9-2.3-1.8-3.1c-1.3-1.3-3-2-4.8-2l0,0c-1.8,0-3.5,0.7-4.8,2
		c-2.7,2.7-2.7,7,0,9.6c0.9,0.9,1.9,1.5,3.1,1.8c0.2,0,0.3,0.2,0.3,0.3c0,0.2,0,0.3-0.1,0.4l-11,11l-11-11c-0.5-0.5-1.1-0.7-1.7-0.7
		c-0.2,0-0.4,0-0.6,0.1c-0.8,0.2-1.5,0.9-1.7,1.8c-0.2,0.8-0.6,1.6-1.3,2.2c-0.9,0.9-2.1,1.4-3.4,1.4c-1.3,0-2.5-0.5-3.4-1.4
		c-1.9-1.9-1.9-4.9,0-6.8c0.6-0.6,1.4-1,2.2-1.3c0.9-0.2,1.5-0.9,1.8-1.7C32.1,64.1,31.8,63.1,31.2,62.5z"/>
</g>
</svg>
