<?xml version="1.0" encoding="utf-8"?>
<!-- Generator: Adobe Illustrator 19.0.0, SVG Export Plug-In . SVG Version: 6.00 Build 0)  -->
<svg version="1.1" id="Capa_1" xmlns="http://www.w3.org/2000/svg" xmlns:xlink="http://www.w3.org/1999/xlink" x="0px" y="0px"
	 viewBox="-453 325.7 116.7 118.3" style="enable-background:new -453 325.7 116.7 118.3;" xml:space="preserve">
<style type="text/css">
	.st0{fill:#74B3BD;}
</style>
<g>
	<path class="st0" d="M-349.1,372.3c-0.5-4.1-1.5-8.2-3-12c-5.3-13.7-16.2-24.4-30-29.2c-5.3-1.9-10.9-2.9-16.6-2.9
		c-9.5,0-18.5,2.7-26,7.3l4.3,2.1c6.4-3.4,13.8-5.4,21.7-5.4c5.2,0,10.4,0.9,15.3,2.6c12.7,4.5,22.8,14.3,27.6,26.9
		c1.4,3.6,2.3,7.5,2.8,11.3v0.3l0.1,0.3c4.7,11.4,9.9,24.8,10.5,28.2c0.6,2.9,0.1,3.7,0,3.9c-0.2,0.3-0.9,0.4-2,0.4h-8.5l-0.1,1.9
		c-0.5,9.6-2.3,18.9-3.8,20c-1.5,1.1-10.8,1.4-18.5,1l-2.1-0.1v13.3h4v-9c5.4,0.2,16,0.3,19-1.9c3.5-2.6,4.8-15.1,5.3-21.1h4.7
		c1.5,0,3.7-0.2,5.1-1.9c1.3-1.5,1.5-3.7,0.8-7.2C-339.3,396.6-346.1,379.7-349.1,372.3z"/>
	<path class="st0" d="M-448.6,378.2c0,16,7.7,31,20.5,40.4v23.7h4v-25.8l-0.9-0.6c-12.3-8.6-19.6-22.7-19.6-37.7
		c0-5,0.8-9.7,2.3-14.2l-2.4-5.3C-447.2,364.7-448.6,371.3-448.6,378.2z"/>
	<path class="st0" d="M-451,329.3l19.7,45.2l6.8-2.3l8.5,9.4c0.1,1.3,0.2,2.5,0.5,3.8l2-0.4c-0.1-0.7-0.3-1.4-0.3-2.1l10.2-16.7
		l16.6-5L-451,329.3z M-413.6,368.5l-0.6-1.9l-15.9,5.3l-15.2-35l39.8,28.4l-9,14.7l-7.8-8.6L-413.6,368.5z M-404.1,364l-42.6-30.4
		l54.2,26.9L-404.1,364z"/>
	<path class="st0" d="M-388.4,404.3l0.1,2c1.4-0.1,2.8-0.3,4.2-0.6l-0.6-2C-385.9,404-387.2,404.2-388.4,404.3z"/>
	<path class="st0" d="M-387.2,389.8c-1.1,0.1-2.1-0.1-3-0.5l-0.7,1.9c1.1,0.4,2.2,0.6,3.4,0.6c0.2,0,0.3,0,0.5,0s0.4,0,0.6,0l-0.2-2
		C-386.9,389.8-387,389.8-387.2,389.8z"/>
	<path class="st0" d="M-384.3,372.3c1.2,0,2.5,0.2,3.7,0.6l0.6-1.9c-1.4-0.4-2.8-0.7-4.2-0.7L-384.3,372.3z"/>
	<path class="st0" d="M-383.8,388.3l1.4,1.5c1.1-1.1,1.9-2.5,2.2-4l-2-0.4C-382.4,386.5-382.9,387.5-383.8,388.3z"/>
	<path class="st0" d="M-396.6,405.4c1.3,0.4,2.7,0.6,4.1,0.8l0.2-2c-1.3-0.1-2.5-0.4-3.8-0.7L-396.6,405.4z"/>
	<path class="st0" d="M-381.2,402.4l0.9,1.8c1.2-0.6,2.4-1.4,3.5-2.3l-1.2-1.6C-379,401.1-380,401.8-381.2,402.4z"/>
	<path class="st0" d="M-392.4,372.9l1.3,1.6c1-0.8,2-1.3,3.2-1.7l-0.6-1.9C-389.9,371.3-391.2,372-392.4,372.9z"/>
	<path class="st0" d="M-396.6,384.6c0.4,1.4,1.1,2.8,2,3.9l1.5-1.3c-0.8-0.9-1.3-2-1.6-3.1L-396.6,384.6z"/>
	<path class="st0" d="M-396.7,380.3l2,0.3c0.2-1.2,0.6-2.3,1.2-3.4l-1.7-1C-395.9,377.5-396.4,378.8-396.7,380.3z"/>
	<path class="st0" d="M-372.4,380c0.5,1.1,0.9,2.3,1.1,3.5l2-0.3c-0.2-1.4-0.7-2.8-1.3-4.1L-372.4,380z"/>
	<path class="st0" d="M-403,400.3l-1.1,1.7c1.2,0.8,2.4,1.4,3.6,2l0.8-1.8C-400.8,401.7-402,401-403,400.3z"/>
	<path class="st0" d="M-369.9,391.6c0.4-1.3,0.6-2.7,0.7-4.1l-2-0.1c-0.1,1.3-0.3,2.5-0.6,3.7L-369.9,391.6z"/>
	<path class="st0" d="M-375.3,397.7l1.5,1.3c0.9-1.1,1.7-2.3,2.3-3.5l-1.8-0.9C-373.8,395.6-374.5,396.7-375.3,397.7z"/>
	<path class="st0" d="M-376.2,372.8l-1.1,1.7c1,0.7,2,1.5,2.8,2.4l1.5-1.3C-373.9,374.5-375,373.6-376.2,372.8z"/>
	<path class="st0" d="M-406.1,398c-0.9-0.9-1.8-1.8-2.6-2.8l-1.6,1.3c0.9,1.1,1.8,2.1,2.8,3L-406.1,398z"/>
	<path class="st0" d="M-414.4,389.3c0.4,1.1,0.9,2.2,1.5,3.3c0.1,0.2,0.2,0.3,0.3,0.5l1.7-1c-0.3-0.5-0.5-1-0.8-1.5
		c-0.3-0.6-0.6-1.3-0.9-2L-414.4,389.3z"/>
</g>
</svg>
