<?xml version="1.0" encoding="utf-8"?>
<!-- Generator: Adobe Illustrator 19.0.0, SVG Export Plug-In . SVG Version: 6.00 Build 0)  -->
<svg version="1.1" id="Capa_1" xmlns="http://www.w3.org/2000/svg" xmlns:xlink="http://www.w3.org/1999/xlink" x="0px" y="0px"
	 viewBox="-453 326 115.1 118" style="enable-background:new -453 326 115.1 118;" xml:space="preserve">
<style type="text/css">
	.st0{fill:#74B3B5;}
</style>
<g>
	<path class="st0" d="M-351.5,371.9c-0.5-4.1-1.5-8.2-3-12c-5.3-13.7-16.2-24.4-30-29.2c-5.3-1.9-10.9-2.8-16.6-2.8
		c-27.5,0-50,22.4-50,50c0,16,7.7,31,20.5,40.4V442h4v-25.9l-0.9-0.6c-12.2-8.6-19.5-22.7-19.5-37.7c0-25.3,20.6-46,46-46
		c5.2,0,10.4,0.9,15.3,2.6c12.6,4.5,22.7,14.3,27.5,26.9c1.4,3.6,2.3,7.5,2.8,11.3v0.3l0.1,0.3c4.7,11.4,9.9,24.8,10.5,28.2
		c0.6,2.9,0.1,3.7,0,3.9c-0.2,0.3-1,0.4-2,0.4h-8.5l-0.1,1.9c-0.5,9.6-2.3,18.9-3.8,20s-10.8,1.4-18.5,1l-2.1-0.1v13.3h4v-9
		c5.4,0.2,16,0.3,19-1.9c3.5-2.6,4.8-15.1,5.3-21.1h4.7c1.5,0,3.7-0.2,5.1-1.9c1.3-1.5,1.5-3.7,0.8-7.2
		C-341.7,396.2-348.5,379.3-351.5,371.9z"/>
	<path class="st0" d="M-377.4,401.5c6.3-6.3,9.8-14.7,9.8-23.7c0-8.9-3.5-17.4-9.8-23.7c-6.3-6.3-14.7-9.8-23.7-9.8
		c-8.9,0-17.4,3.5-23.7,9.8c-6.3,6.3-9.8,14.7-9.8,23.7c0,8.9,3.5,17.4,9.8,23.7c6.3,6.3,14.7,9.8,23.7,9.8
		S-383.7,407.8-377.4,401.5z M-432.6,377.8c0-8.4,3.3-16.3,9.2-22.3s13.9-9.2,22.3-9.2s16.3,3.3,22.3,9.2c5.9,5.9,9.2,13.9,9.2,22.3
		c0,8.4-3.3,16.3-9.2,22.3c-5.9,5.9-13.9,9.2-22.3,9.2s-16.3-3.3-22.3-9.2C-429.3,394.1-432.6,386.2-432.6,377.8z"/>
	<path class="st0" d="M-392.9,393.5l-3.7-14.7c2.7-1.6,4.5-4.5,4.5-7.7c0-4.9-4-8.9-8.9-8.9s-8.9,4-8.9,8.9c0,3.2,1.7,6.1,4.5,7.7
		l-3.7,14.7H-392.9z M-404,377.3c-2.5-1.1-4-3.6-4-6.3c0-3.8,3.1-6.9,6.9-6.9c3.8,0,6.9,3.1,6.9,6.9c0,2.7-1.6,5.2-4,6.3l-0.8,0.3
		l3.5,13.8h-11.2l3.5-13.8L-404,377.3z"/>
</g>
</svg>
