<?xml version="1.0" encoding="utf-8"?>
<!-- Generator: Adobe Illustrator 19.2.1, SVG Export Plug-In . SVG Version: 6.00 Build 0)  -->
<svg version="1.1" id="Capa_1" xmlns="http://www.w3.org/2000/svg" xmlns:xlink="http://www.w3.org/1999/xlink" x="0px" y="0px"
	 viewBox="0 0 74.9 74.9" style="enable-background:new 0 0 74.9 74.9;" xml:space="preserve">
<style type="text/css">
	.st0{fill-rule:evenodd;clip-rule:evenodd;fill:#79BEC0;}
	.st1{fill:#79BEC0;}
</style>
<g>
	<g>
		<path class="st0" d="M36.6,32.9c1.5-4.8,3.4-7.9,5.6-10.2c1.6-1.7,2.4-2.2,1.5-0.4c0.4-0.3,1-0.8,1.5-1c2.6-1.2,2.4-0.2,0.6,0.9
			c4.9-1.8,4.8,0.5-0.5,1.6c4.3,0.1,8.8,2.8,10.1,8.6c0.2,0.8,0,0.7,0.8,0.9c1.8,0.3,3.4,0.3,5-0.2c-0.2,1.2-1.7,2-4.2,2.5
			c-0.9,0.2-1.1,0.1,0,0.4c1.3,0.3,2.8,0.4,4.4,0.3c-1.2,1.4-3.2,2.2-5.7,2.2c-1.5,5.6-5,9.6-9.4,12.1c-10.4,5.9-25.5,5-33-5.7
			c5,3.9,12.3,4.8,17.8-0.7c-3.6,0-4.5-2.7-1.7-4.1c-2.7,0-4.4-0.9-5.4-2.4c-0.4-0.6-0.4-0.6,0.2-1.1c0.7-0.5,1.6-0.7,2.6-0.8
			c-2.8-0.8-4.5-2.2-5.1-4.2c-0.2-0.6-0.2-0.6,0.4-0.8c0.6-0.2,1.5-0.2,2.2-0.3c-2.2-1.3-3.5-2.9-3.8-4.7c-0.3-1.7,0-1.3,1.3-0.8
			C27.6,27.1,33.3,29.5,36.6,32.9L36.6,32.9z"/>
	</g>
	<g>
		<path class="st1" d="M37.4,74.5c-20.4,0-37-16.6-37-37c0-20.4,16.6-37,37-37c20.4,0,37,16.6,37,37C74.5,57.9,57.9,74.5,37.4,74.5z
			 M37.4,3.2C18.5,3.2,3.2,18.5,3.2,37.4c0,18.9,15.4,34.3,34.3,34.3c18.9,0,34.3-15.4,34.3-34.3C71.7,18.5,56.3,3.2,37.4,3.2z"/>
	</g>
</g>
</svg>
