<?xml version="1.0" encoding="utf-8"?>
<!-- Generator: Adobe Illustrator 19.1.0, SVG Export Plug-In . SVG Version: 6.00 Build 0)  -->
<svg version="1.1" id="Capa_1" xmlns="http://www.w3.org/2000/svg" xmlns:xlink="http://www.w3.org/1999/xlink" x="0px" y="0px"
	 viewBox="0 0 48.6 48.8" style="enable-background:new 0 0 48.6 48.8;" xml:space="preserve">
<style type="text/css">
	.st0{fill-rule:evenodd;clip-rule:evenodd;fill:#FFFFFF;}
	.st1{fill:#FFFFFF;}
</style>
<g>
	<g>
		<path class="st0" d="M23.8,21.5c1-3.1,2.2-5.1,3.6-6.5c1-1.1,1.6-1.4,1-0.2c0.3-0.2,0.7-0.5,0.9-0.7c1.7-0.8,1.6-0.1,0.4,0.6
			c3.2-1.1,3,0.3-0.3,1c2.7,0.1,5.6,1.8,6.5,5.5c0.1,0.5,0,0.5,0.5,0.6c1.1,0.2,2.2,0.2,3.2-0.1c-0.1,0.8-1.1,1.3-2.7,1.6
			c-0.6,0.1-0.7,0.1,0,0.2c0.9,0.2,1.8,0.2,2.8,0.2c-0.8,0.9-2.1,1.4-3.6,1.4c-1,3.6-3.2,6.1-6,7.7c-6.6,3.8-16.3,3.2-21.1-3.6
			c3.2,2.5,7.9,3,11.4-0.4c-2.3,0-2.9-1.7-1.1-2.6c-1.7,0-2.8-0.6-3.5-1.5c-0.2-0.4-0.2-0.4,0.1-0.7c0.4-0.3,1-0.5,1.6-0.5
			c-1.8-0.5-2.9-1.4-3.2-2.7c-0.1-0.4-0.1-0.4,0.3-0.5c0.4-0.1,0.9-0.2,1.4-0.2c-1.4-0.8-2.2-1.9-2.4-3c-0.2-1.1,0-0.8,0.8-0.5
			C18,17.8,21.7,19.3,23.8,21.5L23.8,21.5z"/>
	</g>
	<g>
		<path class="st1" d="M24.3,48.1c-13.1,0-23.7-10.6-23.7-23.7c0-13.1,10.6-23.7,23.7-23.7C37.4,0.7,48,11.3,48,24.4
			C48,37.4,37.4,48.1,24.3,48.1z M24.3,2.4c-12.1,0-21.9,9.8-21.9,21.9c0,12.1,9.8,21.9,21.9,21.9c12.1,0,21.9-9.8,21.9-21.9
			C46.3,12.3,36.4,2.4,24.3,2.4z"/>
	</g>
</g>
</svg>
